<svg xmlns="http://www.w3.org/2000/svg" viewBox="0 0 1600 900" width="1600" height="900" preserveAspectRatio="xMidYMid slice">
<defs>
<linearGradient id="bg" x1="0" y1="0" x2="1" y2="1">
<stop offset="0" stop-color="#202428"/>
<stop offset="1" stop-color="#2c3034"/>
</linearGradient>
<linearGradient id="glow" x1="0" y1="0" x2="0" y2="1">
<stop offset="0" stop-color="#ffffff" stop-opacity="0.08"/>
<stop offset="1" stop-color="#000000" stop-opacity="0.35"/>
</linearGradient>
</defs>
<rect width="1600" height="900" fill="url(#bg)"/>
<rect width="1600" height="900" fill="url(#glow)"/>
<rect x="179.7" y="315.0" width="1094.8" height="49.5" fill="#a8b5bd" opacity="0.25" rx="2"/>
<rect x="232.5" y="371.9" width="1075.9" height="49.5" fill="#a8b5bd" opacity="0.30" rx="2"/>
<rect x="315.3" y="428.9" width="1084.4" height="49.5" fill="#a8b5bd" opacity="0.35" rx="2"/>
<rect x="278.1" y="485.8" width="1185.2" height="49.5" fill="#a8b5bd" opacity="0.40" rx="2"/>
<rect x="416.2" y="542.7" width="866.2" height="49.5" fill="#a8b5bd" opacity="0.45" rx="2"/>
<rect x="228.4" y="599.6" width="1142.3" height="49.5" fill="#a8b5bd" opacity="0.50" rx="2"/>
<rect x="402.7" y="656.5" width="931.3" height="49.5" fill="#a8b5bd" opacity="0.55" rx="2"/>
<rect x="259.9" y="713.5" width="1176.8" height="49.5" fill="#a8b5bd" opacity="0.60" rx="2"/>
<line x1="160.0" y1="765.0" x2="1440.0" y2="765.0" stroke="#a8b5bd" stroke-width="1.2" opacity="0.5"/><text x="800" y="872" fill="#6a6866" font-family="sans-serif" font-size="14" font-weight="600" letter-spacing="3" text-anchor="middle" opacity="0.6">APEX FRAME</text>
</svg>
