<svg xmlns="http://www.w3.org/2000/svg" viewBox="0 0 900 1200" width="900" height="1200" preserveAspectRatio="xMidYMid slice">
<defs>
<linearGradient id="bg" x1="0" y1="0" x2="1" y2="1">
<stop offset="0" stop-color="#1e2428"/>
<stop offset="1" stop-color="#2c3640"/>
</linearGradient>
<linearGradient id="glow" x1="0" y1="0" x2="0" y2="1">
<stop offset="0" stop-color="#ffffff" stop-opacity="0.08"/>
<stop offset="1" stop-color="#000000" stop-opacity="0.35"/>
</linearGradient>
</defs>
<rect width="900" height="1200" fill="url(#bg)"/>
<rect width="900" height="1200" fill="url(#glow)"/>
<ellipse cx="450.0" cy="600.0" rx="135.0" ry="82.3" fill="none" stroke="#d8c79a" stroke-width="1.1" opacity="0.25" transform="rotate(-18.4 450.0 600.0)"/>
<ellipse cx="450.0" cy="600.0" rx="216.0" ry="127.3" fill="none" stroke="#d8c79a" stroke-width="1.1" opacity="0.35" transform="rotate(14.7 450.0 600.0)"/>
<ellipse cx="450.0" cy="600.0" rx="297.0" ry="144.9" fill="none" stroke="#d8c79a" stroke-width="1.1" opacity="0.45" transform="rotate(13.4 450.0 600.0)"/>
<ellipse cx="450.0" cy="600.0" rx="378.0" ry="249.4" fill="none" stroke="#d8c79a" stroke-width="1.1" opacity="0.55" transform="rotate(27.4 450.0 600.0)"/>
<ellipse cx="450.0" cy="600.0" rx="459.0" ry="337.2" fill="none" stroke="#d8c79a" stroke-width="1.1" opacity="0.65" transform="rotate(-0.2 450.0 600.0)"/>
<circle cx="450.0" cy="600.0" r="36.0" fill="#d8c79a" opacity="0.9"/>
<circle cx="450.0" cy="600.0" r="72.0" fill="none" stroke="#d8c79a" stroke-width="1.4" opacity="0.7"/>
<circle cx="110.9" cy="513.5" r="4.0" fill="#d8c79a" opacity="0.85"/>
<circle cx="187.6" cy="491.1" r="3.3" fill="#d8c79a" opacity="0.85"/>
<circle cx="53.0" cy="558.3" r="4.7" fill="#d8c79a" opacity="0.85"/>
<circle cx="451.6" cy="791.2" r="6.6" fill="#d8c79a" opacity="0.85"/>
<circle cx="182.8" cy="432.6" r="3.8" fill="#d8c79a" opacity="0.85"/>
<circle cx="348.6" cy="771.4" r="4.7" fill="#d8c79a" opacity="0.85"/>
<circle cx="121.2" cy="685.8" r="5.2" fill="#d8c79a" opacity="0.85"/><text x="450" y="1172" fill="#6a6866" font-family="sans-serif" font-size="14" font-weight="600" letter-spacing="3" text-anchor="middle" opacity="0.6">LUMEN ONE</text>
</svg>
