<svg xmlns="http://www.w3.org/2000/svg" viewBox="0 0 800 600" width="800" height="600" preserveAspectRatio="xMidYMid slice">
<defs>
<linearGradient id="bg" x1="0" y1="0" x2="1" y2="1">
<stop offset="0" stop-color="#1e2830"/>
<stop offset="1" stop-color="#28363e"/>
</linearGradient>
<linearGradient id="glow" x1="0" y1="0" x2="0" y2="1">
<stop offset="0" stop-color="#ffffff" stop-opacity="0.08"/>
<stop offset="1" stop-color="#000000" stop-opacity="0.35"/>
</linearGradient>
</defs>
<rect width="800" height="600" fill="url(#bg)"/>
<rect width="800" height="600" fill="url(#glow)"/>
<line x1="400.0" y1="60.0" x2="400.0" y2="540.0" stroke="#8cb3c2" stroke-width="1.6" opacity="0.65"/>
<line x1="233.52624570447585" y1="90.0" x2="566.4737542955241" y2="90.0" stroke="#8cb3c2" stroke-width="1" opacity="0.30"/>
<circle cx="400.0" cy="90.0" r="3" fill="#8cb3c2" opacity="0.85"/>
<line x1="165.23869508947482" y1="150.0" x2="634.7613049105252" y2="150.0" stroke="#8cb3c2" stroke-width="1" opacity="0.42"/>
<circle cx="400.0" cy="150.0" r="3" fill="#8cb3c2" opacity="0.85"/>
<line x1="179.38029743383242" y1="210.0" x2="620.6197025661676" y2="210.0" stroke="#8cb3c2" stroke-width="1" opacity="0.54"/>
<circle cx="400.0" cy="210.0" r="3" fill="#8cb3c2" opacity="0.85"/>
<line x1="143.74372023180376" y1="270.0" x2="656.2562797681962" y2="270.0" stroke="#8cb3c2" stroke-width="1" opacity="0.30"/>
<circle cx="400.0" cy="270.0" r="3" fill="#8cb3c2" opacity="0.85"/>
<line x1="182.75515322841005" y1="330.0" x2="617.2448467715899" y2="330.0" stroke="#8cb3c2" stroke-width="1" opacity="0.42"/>
<circle cx="400.0" cy="330.0" r="3" fill="#8cb3c2" opacity="0.85"/>
<line x1="176.47928368071098" y1="390.0" x2="623.520716319289" y2="390.0" stroke="#8cb3c2" stroke-width="1" opacity="0.54"/>
<circle cx="400.0" cy="390.0" r="3" fill="#8cb3c2" opacity="0.85"/>
<line x1="196.82804449032187" y1="450.0" x2="603.1719555096781" y2="450.0" stroke="#8cb3c2" stroke-width="1" opacity="0.30"/>
<circle cx="400.0" cy="450.0" r="3" fill="#8cb3c2" opacity="0.85"/><text x="400" y="572" fill="#6a6866" font-family="sans-serif" font-size="14" font-weight="600" letter-spacing="3" text-anchor="middle" opacity="0.6">CORE RIG</text>
</svg>
