<svg xmlns="http://www.w3.org/2000/svg" viewBox="0 0 1600 900" width="1600" height="900" preserveAspectRatio="xMidYMid slice"><defs><linearGradient id="bg" x1="0" y1="0" x2="1" y2="1"><stop offset="0" stop-color="#21272d"/><stop offset="1" stop-color="#2e353c"/></linearGradient><linearGradient id="glow" x1="0" y1="0" x2="0" y2="1"><stop offset="0" stop-color="#ffffff" stop-opacity="0.06"/><stop offset="1" stop-color="#000000" stop-opacity="0.35"/></linearGradient></defs><rect width="1600" height="900" fill="url(#bg)"/><rect width="1600" height="900" fill="url(#glow)"/><line x1="0" y1="0" x2="0" y2="900" stroke="#8f9eab" stroke-width="0.6" opacity="0.06"/><line x1="80" y1="0" x2="80" y2="900" stroke="#8f9eab" stroke-width="0.6" opacity="0.06"/><line x1="160" y1="0" x2="160" y2="900" stroke="#8f9eab" stroke-width="0.6" opacity="0.06"/><line x1="240" y1="0" x2="240" y2="900" stroke="#8f9eab" stroke-width="0.6" opacity="0.06"/><line x1="320" y1="0" x2="320" y2="900" stroke="#8f9eab" stroke-width="0.6" opacity="0.06"/><line x1="400" y1="0" x2="400" y2="900" stroke="#8f9eab" stroke-width="0.6" opacity="0.06"/><line x1="480" y1="0" x2="480" y2="900" stroke="#8f9eab" stroke-width="0.6" opacity="0.06"/><line x1="560" y1="0" x2="560" y2="900" stroke="#8f9eab" stroke-width="0.6" opacity="0.06"/><line x1="640" y1="0" x2="640" y2="900" stroke="#8f9eab" stroke-width="0.6" opacity="0.06"/><line x1="720" y1="0" x2="720" y2="900" stroke="#8f9eab" stroke-width="0.6" opacity="0.06"/><line x1="800" y1="0" x2="800" y2="900" stroke="#8f9eab" stroke-width="0.6" opacity="0.06"/><line x1="880" y1="0" x2="880" y2="900" stroke="#8f9eab" stroke-width="0.6" opacity="0.06"/><line x1="960" y1="0" x2="960" y2="900" stroke="#8f9eab" stroke-width="0.6" opacity="0.06"/><line x1="1040" y1="0" x2="1040" y2="900" stroke="#8f9eab" stroke-width="0.6" opacity="0.06"/><line x1="1120" y1="0" x2="1120" y2="900" stroke="#8f9eab" stroke-width="0.6" opacity="0.06"/><line x1="1200" y1="0" x2="1200" y2="900" stroke="#8f9eab" stroke-width="0.6" opacity="0.06"/><line x1="1280" y1="0" x2="1280" y2="900" stroke="#8f9eab" stroke-width="0.6" opacity="0.06"/><line x1="1360" y1="0" x2="1360" y2="900" stroke="#8f9eab" stroke-width="0.6" opacity="0.06"/><line x1="1440" y1="0" x2="1440" y2="900" stroke="#8f9eab" stroke-width="0.6" opacity="0.06"/><line x1="1520" y1="0" x2="1520" y2="900" stroke="#8f9eab" stroke-width="0.6" opacity="0.06"/><line x1="1600" y1="0" x2="1600" y2="900" stroke="#8f9eab" stroke-width="0.6" opacity="0.06"/><line x1="0" y1="0" x2="1600" y2="0" stroke="#8f9eab" stroke-width="0.6" opacity="0.06"/><line x1="0" y1="80" x2="1600" y2="80" stroke="#8f9eab" stroke-width="0.6" opacity="0.06"/><line x1="0" y1="160" x2="1600" y2="160" stroke="#8f9eab" stroke-width="0.6" opacity="0.06"/><line x1="0" y1="240" x2="1600" y2="240" stroke="#8f9eab" stroke-width="0.6" opacity="0.06"/><line x1="0" y1="320" x2="1600" y2="320" stroke="#8f9eab" stroke-width="0.6" opacity="0.06"/><line x1="0" y1="400" x2="1600" y2="400" stroke="#8f9eab" stroke-width="0.6" opacity="0.06"/><line x1="0" y1="480" x2="1600" y2="480" stroke="#8f9eab" stroke-width="0.6" opacity="0.06"/><line x1="0" y1="560" x2="1600" y2="560" stroke="#8f9eab" stroke-width="0.6" opacity="0.06"/><line x1="0" y1="640" x2="1600" y2="640" stroke="#8f9eab" stroke-width="0.6" opacity="0.06"/><line x1="0" y1="720" x2="1600" y2="720" stroke="#8f9eab" stroke-width="0.6" opacity="0.06"/><line x1="0" y1="800" x2="1600" y2="800" stroke="#8f9eab" stroke-width="0.6" opacity="0.06"/><line x1="0" y1="880" x2="1600" y2="880" stroke="#8f9eab" stroke-width="0.6" opacity="0.06"/><circle cx="800" cy="450" r="320" fill="none" stroke="#8f9eab" stroke-width="1.4" opacity="0.5"/><circle cx="800" cy="450" r="260" fill="none" stroke="#8f9eab" stroke-width="1.2" opacity="0.45"/><circle cx="800" cy="450" r="180" fill="none" stroke="#8f9eab" stroke-width="1.0" opacity="0.35"/><circle cx="1090.0" cy="450.0" r="6" fill="#c0cbd4" opacity="0.9"/><circle cx="1090.0" cy="450.0" r="12" fill="none" stroke="#8f9eab" stroke-width="0.8" opacity="0.5"/><circle cx="1080.1" cy="525.1" r="6" fill="#c0cbd4" opacity="0.9"/><circle cx="1080.1" cy="525.1" r="12" fill="none" stroke="#8f9eab" stroke-width="0.8" opacity="0.5"/><circle cx="1051.1" cy="595.0" r="6" fill="#c0cbd4" opacity="0.9"/><circle cx="1051.1" cy="595.0" r="12" fill="none" stroke="#8f9eab" stroke-width="0.8" opacity="0.5"/><circle cx="1005.1" cy="655.1" r="6" fill="#c0cbd4" opacity="0.9"/><circle cx="1005.1" cy="655.1" r="12" fill="none" stroke="#8f9eab" stroke-width="0.8" opacity="0.5"/><circle cx="945.0" cy="701.1" r="6" fill="#c0cbd4" opacity="0.9"/><circle cx="945.0" cy="701.1" r="12" fill="none" stroke="#8f9eab" stroke-width="0.8" opacity="0.5"/><circle cx="875.1" cy="730.1" r="6" fill="#c0cbd4" opacity="0.9"/><circle cx="875.1" cy="730.1" r="12" fill="none" stroke="#8f9eab" stroke-width="0.8" opacity="0.5"/><circle cx="800.0" cy="740.0" r="6" fill="#c0cbd4" opacity="0.9"/><circle cx="800.0" cy="740.0" r="12" fill="none" stroke="#8f9eab" stroke-width="0.8" opacity="0.5"/><circle cx="724.9" cy="730.1" r="6" fill="#c0cbd4" opacity="0.9"/><circle cx="724.9" cy="730.1" r="12" fill="none" stroke="#8f9eab" stroke-width="0.8" opacity="0.5"/><circle cx="655.0" cy="701.1" r="6" fill="#c0cbd4" opacity="0.9"/><circle cx="655.0" cy="701.1" r="12" fill="none" stroke="#8f9eab" stroke-width="0.8" opacity="0.5"/><circle cx="594.9" cy="655.1" r="6" fill="#c0cbd4" opacity="0.9"/><circle cx="594.9" cy="655.1" r="12" fill="none" stroke="#8f9eab" stroke-width="0.8" opacity="0.5"/><circle cx="548.9" cy="595.0" r="6" fill="#c0cbd4" opacity="0.9"/><circle cx="548.9" cy="595.0" r="12" fill="none" stroke="#8f9eab" stroke-width="0.8" opacity="0.5"/><circle cx="519.9" cy="525.1" r="6" fill="#c0cbd4" opacity="0.9"/><circle cx="519.9" cy="525.1" r="12" fill="none" stroke="#8f9eab" stroke-width="0.8" opacity="0.5"/><circle cx="510.0" cy="450.0" r="6" fill="#c0cbd4" opacity="0.9"/><circle cx="510.0" cy="450.0" r="12" fill="none" stroke="#8f9eab" stroke-width="0.8" opacity="0.5"/><circle cx="519.9" cy="374.9" r="6" fill="#c0cbd4" opacity="0.9"/><circle cx="519.9" cy="374.9" r="12" fill="none" stroke="#8f9eab" stroke-width="0.8" opacity="0.5"/><circle cx="548.9" cy="305.0" r="6" fill="#c0cbd4" opacity="0.9"/><circle cx="548.9" cy="305.0" r="12" fill="none" stroke="#8f9eab" stroke-width="0.8" opacity="0.5"/><circle cx="594.9" cy="244.9" r="6" fill="#c0cbd4" opacity="0.9"/><circle cx="594.9" cy="244.9" r="12" fill="none" stroke="#8f9eab" stroke-width="0.8" opacity="0.5"/><circle cx="655.0" cy="198.9" r="6" fill="#c0cbd4" opacity="0.9"/><circle cx="655.0" cy="198.9" r="12" fill="none" stroke="#8f9eab" stroke-width="0.8" opacity="0.5"/><circle cx="724.9" cy="169.9" r="6" fill="#c0cbd4" opacity="0.9"/><circle cx="724.9" cy="169.9" r="12" fill="none" stroke="#8f9eab" stroke-width="0.8" opacity="0.5"/><circle cx="800.0" cy="160.0" r="6" fill="#c0cbd4" opacity="0.9"/><circle cx="800.0" cy="160.0" r="12" fill="none" stroke="#8f9eab" stroke-width="0.8" opacity="0.5"/><circle cx="875.1" cy="169.9" r="6" fill="#c0cbd4" opacity="0.9"/><circle cx="875.1" cy="169.9" r="12" fill="none" stroke="#8f9eab" stroke-width="0.8" opacity="0.5"/><circle cx="945.0" cy="198.9" r="6" fill="#c0cbd4" opacity="0.9"/><circle cx="945.0" cy="198.9" r="12" fill="none" stroke="#8f9eab" stroke-width="0.8" opacity="0.5"/><circle cx="1005.1" cy="244.9" r="6" fill="#c0cbd4" opacity="0.9"/><circle cx="1005.1" cy="244.9" r="12" fill="none" stroke="#8f9eab" stroke-width="0.8" opacity="0.5"/><circle cx="1051.1" cy="305.0" r="6" fill="#c0cbd4" opacity="0.9"/><circle cx="1051.1" cy="305.0" r="12" fill="none" stroke="#8f9eab" stroke-width="0.8" opacity="0.5"/><circle cx="1080.1" cy="374.9" r="6" fill="#c0cbd4" opacity="0.9"/><circle cx="1080.1" cy="374.9" r="12" fill="none" stroke="#8f9eab" stroke-width="0.8" opacity="0.5"/><circle cx="800" cy="450" r="40" fill="#c0cbd4" opacity="0.85"/><text x="800" y="876" fill="#6a6866" font-family="sans-serif" font-size="14" font-weight="600" letter-spacing="3" text-anchor="middle" opacity="0.55">FLEX SPINE · 03</text></svg>