<svg xmlns="http://www.w3.org/2000/svg" viewBox="0 0 1600 900" width="1600" height="900" preserveAspectRatio="xMidYMid slice"><defs><linearGradient id="bg" x1="0" y1="0" x2="1" y2="1"><stop offset="0" stop-color="#21272d"/><stop offset="1" stop-color="#2e353c"/></linearGradient><linearGradient id="glow" x1="0" y1="0" x2="0" y2="1"><stop offset="0" stop-color="#ffffff" stop-opacity="0.06"/><stop offset="1" stop-color="#000000" stop-opacity="0.35"/></linearGradient></defs><rect width="1600" height="900" fill="url(#bg)"/><rect width="1600" height="900" fill="url(#glow)"/><line x1="0" y1="0" x2="0" y2="900" stroke="#8f9eab" stroke-width="0.6" opacity="0.06"/><line x1="80" y1="0" x2="80" y2="900" stroke="#8f9eab" stroke-width="0.6" opacity="0.06"/><line x1="160" y1="0" x2="160" y2="900" stroke="#8f9eab" stroke-width="0.6" opacity="0.06"/><line x1="240" y1="0" x2="240" y2="900" stroke="#8f9eab" stroke-width="0.6" opacity="0.06"/><line x1="320" y1="0" x2="320" y2="900" stroke="#8f9eab" stroke-width="0.6" opacity="0.06"/><line x1="400" y1="0" x2="400" y2="900" stroke="#8f9eab" stroke-width="0.6" opacity="0.06"/><line x1="480" y1="0" x2="480" y2="900" stroke="#8f9eab" stroke-width="0.6" opacity="0.06"/><line x1="560" y1="0" x2="560" y2="900" stroke="#8f9eab" stroke-width="0.6" opacity="0.06"/><line x1="640" y1="0" x2="640" y2="900" stroke="#8f9eab" stroke-width="0.6" opacity="0.06"/><line x1="720" y1="0" x2="720" y2="900" stroke="#8f9eab" stroke-width="0.6" opacity="0.06"/><line x1="800" y1="0" x2="800" y2="900" stroke="#8f9eab" stroke-width="0.6" opacity="0.06"/><line x1="880" y1="0" x2="880" y2="900" stroke="#8f9eab" stroke-width="0.6" opacity="0.06"/><line x1="960" y1="0" x2="960" y2="900" stroke="#8f9eab" stroke-width="0.6" opacity="0.06"/><line x1="1040" y1="0" x2="1040" y2="900" stroke="#8f9eab" stroke-width="0.6" opacity="0.06"/><line x1="1120" y1="0" x2="1120" y2="900" stroke="#8f9eab" stroke-width="0.6" opacity="0.06"/><line x1="1200" y1="0" x2="1200" y2="900" stroke="#8f9eab" stroke-width="0.6" opacity="0.06"/><line x1="1280" y1="0" x2="1280" y2="900" stroke="#8f9eab" stroke-width="0.6" opacity="0.06"/><line x1="1360" y1="0" x2="1360" y2="900" stroke="#8f9eab" stroke-width="0.6" opacity="0.06"/><line x1="1440" y1="0" x2="1440" y2="900" stroke="#8f9eab" stroke-width="0.6" opacity="0.06"/><line x1="1520" y1="0" x2="1520" y2="900" stroke="#8f9eab" stroke-width="0.6" opacity="0.06"/><line x1="1600" y1="0" x2="1600" y2="900" stroke="#8f9eab" stroke-width="0.6" opacity="0.06"/><line x1="0" y1="0" x2="1600" y2="0" stroke="#8f9eab" stroke-width="0.6" opacity="0.06"/><line x1="0" y1="80" x2="1600" y2="80" stroke="#8f9eab" stroke-width="0.6" opacity="0.06"/><line x1="0" y1="160" x2="1600" y2="160" stroke="#8f9eab" stroke-width="0.6" opacity="0.06"/><line x1="0" y1="240" x2="1600" y2="240" stroke="#8f9eab" stroke-width="0.6" opacity="0.06"/><line x1="0" y1="320" x2="1600" y2="320" stroke="#8f9eab" stroke-width="0.6" opacity="0.06"/><line x1="0" y1="400" x2="1600" y2="400" stroke="#8f9eab" stroke-width="0.6" opacity="0.06"/><line x1="0" y1="480" x2="1600" y2="480" stroke="#8f9eab" stroke-width="0.6" opacity="0.06"/><line x1="0" y1="560" x2="1600" y2="560" stroke="#8f9eab" stroke-width="0.6" opacity="0.06"/><line x1="0" y1="640" x2="1600" y2="640" stroke="#8f9eab" stroke-width="0.6" opacity="0.06"/><line x1="0" y1="720" x2="1600" y2="720" stroke="#8f9eab" stroke-width="0.6" opacity="0.06"/><line x1="0" y1="800" x2="1600" y2="800" stroke="#8f9eab" stroke-width="0.6" opacity="0.06"/><line x1="0" y1="880" x2="1600" y2="880" stroke="#8f9eab" stroke-width="0.6" opacity="0.06"/><circle cx="1111.2" cy="33.1" r="5.8" fill="#c0cbd4" opacity="0.48"/><circle cx="1570.0" cy="265.3" r="2.8" fill="#c0cbd4" opacity="0.78"/><circle cx="77.5" cy="286.5" r="4.6" fill="#c0cbd4" opacity="0.50"/><circle cx="947.8" cy="617.7" r="6.0" fill="#c0cbd4" opacity="0.31"/><circle cx="1013.3" cy="111.6" r="5.7" fill="#c0cbd4" opacity="0.44"/><circle cx="1453.2" cy="615.0" r="2.9" fill="#c0cbd4" opacity="0.50"/><circle cx="1194.4" cy="737.3" r="2.1" fill="#c0cbd4" opacity="0.35"/><circle cx="684.1" cy="639.3" r="4.2" fill="#c0cbd4" opacity="0.69"/><circle cx="622.2" cy="513.5" r="5.3" fill="#c0cbd4" opacity="0.32"/><circle cx="1480.8" cy="55.3" r="3.5" fill="#c0cbd4" opacity="0.62"/><circle cx="433.3" cy="867.0" r="3.3" fill="#c0cbd4" opacity="0.32"/><circle cx="1122.9" cy="648.9" r="2.8" fill="#c0cbd4" opacity="0.32"/><circle cx="777.4" cy="118.8" r="2.5" fill="#c0cbd4" opacity="0.68"/><circle cx="81.4" cy="191.5" r="4.1" fill="#c0cbd4" opacity="0.58"/><circle cx="209.1" cy="653.2" r="5.3" fill="#c0cbd4" opacity="0.72"/><circle cx="663.3" cy="858.1" r="3.6" fill="#c0cbd4" opacity="0.54"/><circle cx="1182.5" cy="865.6" r="3.8" fill="#c0cbd4" opacity="0.69"/><circle cx="746.6" cy="521.1" r="3.8" fill="#c0cbd4" opacity="0.66"/><circle cx="1393.3" cy="796.6" r="4.6" fill="#c0cbd4" opacity="0.33"/><circle cx="959.9" cy="145.5" r="4.5" fill="#c0cbd4" opacity="0.67"/><circle cx="1461.4" cy="623.8" r="3.1" fill="#c0cbd4" opacity="0.63"/><circle cx="1207.1" cy="90.1" r="4.1" fill="#c0cbd4" opacity="0.49"/><circle cx="579.8" cy="565.5" r="5.2" fill="#c0cbd4" opacity="0.70"/><circle cx="725.2" cy="487.4" r="5.2" fill="#c0cbd4" opacity="0.66"/><circle cx="203.9" cy="91.9" r="5.1" fill="#c0cbd4" opacity="0.34"/><circle cx="1486.4" cy="273.4" r="3.8" fill="#c0cbd4" opacity="0.43"/><circle cx="1438.4" cy="794.0" r="5.7" fill="#c0cbd4" opacity="0.55"/><circle cx="1330.4" cy="387.0" r="5.4" fill="#c0cbd4" opacity="0.37"/><circle cx="111.5" cy="762.0" r="2.1" fill="#c0cbd4" opacity="0.72"/><circle cx="715.4" cy="720.4" r="3.0" fill="#c0cbd4" opacity="0.45"/><circle cx="1104.1" cy="874.0" r="4.5" fill="#c0cbd4" opacity="0.36"/><circle cx="610.6" cy="192.9" r="5.3" fill="#c0cbd4" opacity="0.39"/><circle cx="749.1" cy="302.9" r="4.9" fill="#c0cbd4" opacity="0.69"/><circle cx="1250.2" cy="704.6" r="5.7" fill="#c0cbd4" opacity="0.70"/><circle cx="1019.4" cy="512.1" r="4.6" fill="#c0cbd4" opacity="0.76"/><circle cx="652.8" cy="457.7" r="4.9" fill="#c0cbd4" opacity="0.65"/><circle cx="1115.5" cy="69.2" r="2.4" fill="#c0cbd4" opacity="0.35"/><circle cx="17.4" cy="432.9" r="5.1" fill="#c0cbd4" opacity="0.36"/><circle cx="532.0" cy="561.6" r="3.4" fill="#c0cbd4" opacity="0.67"/><circle cx="922.6" cy="125.9" r="3.0" fill="#c0cbd4" opacity="0.32"/><circle cx="800" cy="450" r="80" fill="none" stroke="#8f9eab" stroke-width="1.0" opacity="0.26666666666666666"/><circle cx="800" cy="450" r="140" fill="none" stroke="#8f9eab" stroke-width="1.0" opacity="0.31666666666666665"/><circle cx="800" cy="450" r="200" fill="none" stroke="#8f9eab" stroke-width="1.0" opacity="0.3666666666666667"/><circle cx="800" cy="450" r="260" fill="none" stroke="#8f9eab" stroke-width="1.0" opacity="0.4166666666666667"/><circle cx="800" cy="450" r="320" fill="none" stroke="#8f9eab" stroke-width="1.0" opacity="0.4666666666666667"/><circle cx="800" cy="450" r="36" fill="#c0cbd4" opacity="0.9"/><text x="800" y="876" fill="#6a6866" font-family="sans-serif" font-size="14" font-weight="600" letter-spacing="3" text-anchor="middle" opacity="0.55">FLEX SPINE · 05</text></svg>