<svg xmlns="http://www.w3.org/2000/svg" viewBox="0 0 1600 900" width="1600" height="900" preserveAspectRatio="xMidYMid slice">
<defs>
<linearGradient id="bg" x1="0" y1="0" x2="1" y2="1">
<stop offset="0" stop-color="#1a1a2a"/>
<stop offset="1" stop-color="#252535"/>
</linearGradient>
<linearGradient id="glow" x1="0" y1="0" x2="0" y2="1">
<stop offset="0" stop-color="#ffffff" stop-opacity="0.08"/>
<stop offset="1" stop-color="#000000" stop-opacity="0.35"/>
</linearGradient>
</defs>
<rect width="1600" height="900" fill="url(#bg)"/>
<rect width="1600" height="900" fill="url(#glow)"/>
<line x1="800.0" y1="90.0" x2="800.0" y2="810.0" stroke="#9a7ac9" stroke-width="1.6" opacity="0.65"/>
<line x1="522.0466859972389" y1="135.0" x2="1077.953314002761" y2="135.0" stroke="#9a7ac9" stroke-width="1" opacity="0.30"/>
<circle cx="800.0" cy="135.0" r="3" fill="#9a7ac9" opacity="0.85"/>
<line x1="498.50080862217936" y1="225.0" x2="1101.4991913778206" y2="225.0" stroke="#9a7ac9" stroke-width="1" opacity="0.42"/>
<circle cx="800.0" cy="225.0" r="3" fill="#9a7ac9" opacity="0.85"/>
<line x1="381.80320932585" y1="315.0" x2="1218.19679067415" y2="315.0" stroke="#9a7ac9" stroke-width="1" opacity="0.54"/>
<circle cx="800.0" cy="315.0" r="3" fill="#9a7ac9" opacity="0.85"/>
<line x1="403.16914350194094" y1="405.0" x2="1196.8308564980591" y2="405.0" stroke="#9a7ac9" stroke-width="1" opacity="0.30"/>
<circle cx="800.0" cy="405.0" r="3" fill="#9a7ac9" opacity="0.85"/>
<line x1="537.6855921994107" y1="495.0" x2="1062.3144078005894" y2="495.0" stroke="#9a7ac9" stroke-width="1" opacity="0.42"/>
<circle cx="800.0" cy="495.0" r="3" fill="#9a7ac9" opacity="0.85"/>
<line x1="254.2349516037059" y1="585.0" x2="1345.765048396294" y2="585.0" stroke="#9a7ac9" stroke-width="1" opacity="0.54"/>
<circle cx="800.0" cy="585.0" r="3" fill="#9a7ac9" opacity="0.85"/>
<line x1="477.69085083117136" y1="675.0" x2="1122.3091491688288" y2="675.0" stroke="#9a7ac9" stroke-width="1" opacity="0.30"/>
<circle cx="800.0" cy="675.0" r="3" fill="#9a7ac9" opacity="0.85"/><text x="800" y="872" fill="#6a6866" font-family="sans-serif" font-size="14" font-weight="600" letter-spacing="3" text-anchor="middle" opacity="0.6">NIGHTSHARD</text>
</svg>
