<svg xmlns="http://www.w3.org/2000/svg" viewBox="0 0 900 1200" width="900" height="1200" preserveAspectRatio="xMidYMid slice">
<defs>
<linearGradient id="bg" x1="0" y1="0" x2="1" y2="1">
<stop offset="0" stop-color="#1a1a2a"/>
<stop offset="1" stop-color="#252535"/>
</linearGradient>
<linearGradient id="glow" x1="0" y1="0" x2="0" y2="1">
<stop offset="0" stop-color="#ffffff" stop-opacity="0.08"/>
<stop offset="1" stop-color="#000000" stop-opacity="0.35"/>
</linearGradient>
</defs>
<rect width="900" height="1200" fill="url(#bg)"/>
<rect width="900" height="1200" fill="url(#glow)"/>
<ellipse cx="450.0" cy="600.0" rx="135.0" ry="83.4" fill="none" stroke="#9a7ac9" stroke-width="1.1" opacity="0.25" transform="rotate(4.9 450.0 600.0)"/>
<ellipse cx="450.0" cy="600.0" rx="216.0" ry="152.7" fill="none" stroke="#9a7ac9" stroke-width="1.1" opacity="0.35" transform="rotate(14.3 450.0 600.0)"/>
<ellipse cx="450.0" cy="600.0" rx="297.0" ry="171.8" fill="none" stroke="#9a7ac9" stroke-width="1.1" opacity="0.45" transform="rotate(-16.0 450.0 600.0)"/>
<ellipse cx="450.0" cy="600.0" rx="378.0" ry="201.2" fill="none" stroke="#9a7ac9" stroke-width="1.1" opacity="0.55" transform="rotate(4.5 450.0 600.0)"/>
<circle cx="450.0" cy="600.0" r="36.0" fill="#9a7ac9" opacity="0.9"/>
<circle cx="450.0" cy="600.0" r="72.0" fill="none" stroke="#9a7ac9" stroke-width="1.4" opacity="0.7"/>
<circle cx="289.9" cy="825.6" r="6.3" fill="#9a7ac9" opacity="0.85"/>
<circle cx="161.8" cy="625.4" r="5.5" fill="#9a7ac9" opacity="0.85"/>
<circle cx="539.4" cy="434.4" r="3.3" fill="#9a7ac9" opacity="0.85"/>
<circle cx="353.7" cy="426.7" r="5.5" fill="#9a7ac9" opacity="0.85"/><text x="450" y="1172" fill="#6a6866" font-family="sans-serif" font-size="14" font-weight="600" letter-spacing="3" text-anchor="middle" opacity="0.6">NIGHTSHARD</text>
</svg>
