<svg xmlns="http://www.w3.org/2000/svg" viewBox="0 0 1600 900" width="1600" height="900" preserveAspectRatio="xMidYMid slice">
<defs>
<linearGradient id="bg" x1="0" y1="0" x2="1" y2="1">
<stop offset="0" stop-color="#1c2428"/>
<stop offset="1" stop-color="#28343a"/>
</linearGradient>
<linearGradient id="glow" x1="0" y1="0" x2="0" y2="1">
<stop offset="0" stop-color="#ffffff" stop-opacity="0.08"/>
<stop offset="1" stop-color="#000000" stop-opacity="0.35"/>
</linearGradient>
</defs>
<rect width="1600" height="900" fill="url(#bg)"/>
<rect width="1600" height="900" fill="url(#glow)"/>
<line x1="-900" y1="0" x2="0" y2="900" stroke="#8fa3b2" stroke-width="0.6" opacity="0.14"/>
<line x1="-810" y1="0" x2="90" y2="900" stroke="#8fa3b2" stroke-width="0.6" opacity="0.14"/>
<line x1="-720" y1="0" x2="180" y2="900" stroke="#8fa3b2" stroke-width="0.6" opacity="0.14"/>
<line x1="-630" y1="0" x2="270" y2="900" stroke="#8fa3b2" stroke-width="0.6" opacity="0.14"/>
<line x1="-540" y1="0" x2="360" y2="900" stroke="#8fa3b2" stroke-width="0.6" opacity="0.14"/>
<line x1="-450" y1="0" x2="450" y2="900" stroke="#8fa3b2" stroke-width="0.6" opacity="0.14"/>
<line x1="-360" y1="0" x2="540" y2="900" stroke="#8fa3b2" stroke-width="0.6" opacity="0.14"/>
<line x1="-270" y1="0" x2="630" y2="900" stroke="#8fa3b2" stroke-width="0.6" opacity="0.14"/>
<line x1="-180" y1="0" x2="720" y2="900" stroke="#8fa3b2" stroke-width="0.6" opacity="0.14"/>
<line x1="-90" y1="0" x2="810" y2="900" stroke="#8fa3b2" stroke-width="0.6" opacity="0.14"/>
<line x1="0" y1="0" x2="900" y2="900" stroke="#8fa3b2" stroke-width="0.6" opacity="0.14"/>
<line x1="90" y1="0" x2="990" y2="900" stroke="#8fa3b2" stroke-width="0.6" opacity="0.14"/>
<line x1="180" y1="0" x2="1080" y2="900" stroke="#8fa3b2" stroke-width="0.6" opacity="0.14"/>
<line x1="270" y1="0" x2="1170" y2="900" stroke="#8fa3b2" stroke-width="0.6" opacity="0.14"/>
<line x1="360" y1="0" x2="1260" y2="900" stroke="#8fa3b2" stroke-width="0.6" opacity="0.14"/>
<line x1="450" y1="0" x2="1350" y2="900" stroke="#8fa3b2" stroke-width="0.6" opacity="0.14"/>
<line x1="540" y1="0" x2="1440" y2="900" stroke="#8fa3b2" stroke-width="0.6" opacity="0.14"/>
<line x1="630" y1="0" x2="1530" y2="900" stroke="#8fa3b2" stroke-width="0.6" opacity="0.14"/>
<line x1="720" y1="0" x2="1620" y2="900" stroke="#8fa3b2" stroke-width="0.6" opacity="0.14"/>
<line x1="810" y1="0" x2="1710" y2="900" stroke="#8fa3b2" stroke-width="0.6" opacity="0.14"/>
<line x1="900" y1="0" x2="1800" y2="900" stroke="#8fa3b2" stroke-width="0.6" opacity="0.14"/>
<line x1="990" y1="0" x2="1890" y2="900" stroke="#8fa3b2" stroke-width="0.6" opacity="0.14"/>
<line x1="1080" y1="0" x2="1980" y2="900" stroke="#8fa3b2" stroke-width="0.6" opacity="0.14"/>
<line x1="1170" y1="0" x2="2070" y2="900" stroke="#8fa3b2" stroke-width="0.6" opacity="0.14"/>
<line x1="1260" y1="0" x2="2160" y2="900" stroke="#8fa3b2" stroke-width="0.6" opacity="0.14"/>
<line x1="1350" y1="0" x2="2250" y2="900" stroke="#8fa3b2" stroke-width="0.6" opacity="0.14"/>
<line x1="1440" y1="0" x2="2340" y2="900" stroke="#8fa3b2" stroke-width="0.6" opacity="0.14"/>
<line x1="1530" y1="0" x2="2430" y2="900" stroke="#8fa3b2" stroke-width="0.6" opacity="0.14"/>
<line x1="1620" y1="0" x2="2520" y2="900" stroke="#8fa3b2" stroke-width="0.6" opacity="0.14"/>
<line x1="1710" y1="0" x2="2610" y2="900" stroke="#8fa3b2" stroke-width="0.6" opacity="0.14"/>
<line x1="1800" y1="0" x2="2700" y2="900" stroke="#8fa3b2" stroke-width="0.6" opacity="0.14"/>
<line x1="1890" y1="0" x2="2790" y2="900" stroke="#8fa3b2" stroke-width="0.6" opacity="0.14"/>
<line x1="1980" y1="0" x2="2880" y2="900" stroke="#8fa3b2" stroke-width="0.6" opacity="0.14"/>
<line x1="2070" y1="0" x2="2970" y2="900" stroke="#8fa3b2" stroke-width="0.6" opacity="0.14"/>
<line x1="2160" y1="0" x2="3060" y2="900" stroke="#8fa3b2" stroke-width="0.6" opacity="0.14"/>
<line x1="2250" y1="0" x2="3150" y2="900" stroke="#8fa3b2" stroke-width="0.6" opacity="0.14"/>
<line x1="2340" y1="0" x2="3240" y2="900" stroke="#8fa3b2" stroke-width="0.6" opacity="0.14"/>
<line x1="2430" y1="0" x2="3330" y2="900" stroke="#8fa3b2" stroke-width="0.6" opacity="0.14"/>
<line x1="-900" y1="900" x2="0" y2="0" stroke="#8fa3b2" stroke-width="0.6" opacity="0.14"/>
<line x1="-810" y1="900" x2="90" y2="0" stroke="#8fa3b2" stroke-width="0.6" opacity="0.14"/>
<line x1="-720" y1="900" x2="180" y2="0" stroke="#8fa3b2" stroke-width="0.6" opacity="0.14"/>
<line x1="-630" y1="900" x2="270" y2="0" stroke="#8fa3b2" stroke-width="0.6" opacity="0.14"/>
<line x1="-540" y1="900" x2="360" y2="0" stroke="#8fa3b2" stroke-width="0.6" opacity="0.14"/>
<line x1="-450" y1="900" x2="450" y2="0" stroke="#8fa3b2" stroke-width="0.6" opacity="0.14"/>
<line x1="-360" y1="900" x2="540" y2="0" stroke="#8fa3b2" stroke-width="0.6" opacity="0.14"/>
<line x1="-270" y1="900" x2="630" y2="0" stroke="#8fa3b2" stroke-width="0.6" opacity="0.14"/>
<line x1="-180" y1="900" x2="720" y2="0" stroke="#8fa3b2" stroke-width="0.6" opacity="0.14"/>
<line x1="-90" y1="900" x2="810" y2="0" stroke="#8fa3b2" stroke-width="0.6" opacity="0.14"/>
<line x1="0" y1="900" x2="900" y2="0" stroke="#8fa3b2" stroke-width="0.6" opacity="0.14"/>
<line x1="90" y1="900" x2="990" y2="0" stroke="#8fa3b2" stroke-width="0.6" opacity="0.14"/>
<line x1="180" y1="900" x2="1080" y2="0" stroke="#8fa3b2" stroke-width="0.6" opacity="0.14"/>
<line x1="270" y1="900" x2="1170" y2="0" stroke="#8fa3b2" stroke-width="0.6" opacity="0.14"/>
<line x1="360" y1="900" x2="1260" y2="0" stroke="#8fa3b2" stroke-width="0.6" opacity="0.14"/>
<line x1="450" y1="900" x2="1350" y2="0" stroke="#8fa3b2" stroke-width="0.6" opacity="0.14"/>
<line x1="540" y1="900" x2="1440" y2="0" stroke="#8fa3b2" stroke-width="0.6" opacity="0.14"/>
<line x1="630" y1="900" x2="1530" y2="0" stroke="#8fa3b2" stroke-width="0.6" opacity="0.14"/>
<line x1="720" y1="900" x2="1620" y2="0" stroke="#8fa3b2" stroke-width="0.6" opacity="0.14"/>
<line x1="810" y1="900" x2="1710" y2="0" stroke="#8fa3b2" stroke-width="0.6" opacity="0.14"/>
<line x1="900" y1="900" x2="1800" y2="0" stroke="#8fa3b2" stroke-width="0.6" opacity="0.14"/>
<line x1="990" y1="900" x2="1890" y2="0" stroke="#8fa3b2" stroke-width="0.6" opacity="0.14"/>
<line x1="1080" y1="900" x2="1980" y2="0" stroke="#8fa3b2" stroke-width="0.6" opacity="0.14"/>
<line x1="1170" y1="900" x2="2070" y2="0" stroke="#8fa3b2" stroke-width="0.6" opacity="0.14"/>
<line x1="1260" y1="900" x2="2160" y2="0" stroke="#8fa3b2" stroke-width="0.6" opacity="0.14"/>
<line x1="1350" y1="900" x2="2250" y2="0" stroke="#8fa3b2" stroke-width="0.6" opacity="0.14"/>
<line x1="1440" y1="900" x2="2340" y2="0" stroke="#8fa3b2" stroke-width="0.6" opacity="0.14"/>
<line x1="1530" y1="900" x2="2430" y2="0" stroke="#8fa3b2" stroke-width="0.6" opacity="0.14"/>
<line x1="1620" y1="900" x2="2520" y2="0" stroke="#8fa3b2" stroke-width="0.6" opacity="0.14"/>
<line x1="1710" y1="900" x2="2610" y2="0" stroke="#8fa3b2" stroke-width="0.6" opacity="0.14"/>
<line x1="1800" y1="900" x2="2700" y2="0" stroke="#8fa3b2" stroke-width="0.6" opacity="0.14"/>
<line x1="1890" y1="900" x2="2790" y2="0" stroke="#8fa3b2" stroke-width="0.6" opacity="0.14"/>
<line x1="1980" y1="900" x2="2880" y2="0" stroke="#8fa3b2" stroke-width="0.6" opacity="0.14"/>
<line x1="2070" y1="900" x2="2970" y2="0" stroke="#8fa3b2" stroke-width="0.6" opacity="0.14"/>
<line x1="2160" y1="900" x2="3060" y2="0" stroke="#8fa3b2" stroke-width="0.6" opacity="0.14"/>
<line x1="2250" y1="900" x2="3150" y2="0" stroke="#8fa3b2" stroke-width="0.6" opacity="0.14"/>
<line x1="2340" y1="900" x2="3240" y2="0" stroke="#8fa3b2" stroke-width="0.6" opacity="0.14"/>
<line x1="2430" y1="900" x2="3330" y2="0" stroke="#8fa3b2" stroke-width="0.6" opacity="0.14"/>
<circle cx="1312.6" cy="578.6" r="5.5" fill="#8fa3b2" opacity="0.5"/>
<circle cx="913.1" cy="594.7" r="6.2" fill="#8fa3b2" opacity="0.5"/>
<circle cx="900.0" cy="645.0" r="4.7" fill="#8fa3b2" opacity="0.5"/>
<circle cx="1148.7" cy="238.8" r="6.1" fill="#8fa3b2" opacity="0.5"/>
<circle cx="459.5" cy="275.5" r="6.3" fill="#8fa3b2" opacity="0.5"/>
<circle cx="335.3" cy="621.9" r="5.0" fill="#8fa3b2" opacity="0.5"/>
<circle cx="704.1" cy="652.3" r="6.5" fill="#8fa3b2" opacity="0.5"/>
<circle cx="826.9" cy="722.7" r="5.6" fill="#8fa3b2" opacity="0.5"/>
<circle cx="1407.6" cy="193.7" r="6.1" fill="#8fa3b2" opacity="0.5"/>
<circle cx="235.2" cy="749.6" r="7.6" fill="#8fa3b2" opacity="0.5"/>
<circle cx="777.3" cy="508.8" r="4.4" fill="#8fa3b2" opacity="0.5"/>
<circle cx="829.2" cy="718.2" r="6.8" fill="#8fa3b2" opacity="0.5"/>
<circle cx="998.1" cy="602.2" r="7.9" fill="#8fa3b2" opacity="0.5"/>
<circle cx="950.7" cy="93.2" r="5.1" fill="#8fa3b2" opacity="0.5"/>
<circle cx="999.4" cy="208.9" r="5.1" fill="#8fa3b2" opacity="0.5"/>
<circle cx="719.4" cy="445.5" r="6.4" fill="#8fa3b2" opacity="0.5"/>
<circle cx="1230.7" cy="498.7" r="7.9" fill="#8fa3b2" opacity="0.5"/>
<circle cx="274.8" cy="733.7" r="4.4" fill="#8fa3b2" opacity="0.5"/>
<circle cx="509.1" cy="533.9" r="8.0" fill="#8fa3b2" opacity="0.5"/>
<circle cx="453.3" cy="755.0" r="5.2" fill="#8fa3b2" opacity="0.5"/>
<circle cx="1199.5" cy="111.6" r="6.6" fill="#8fa3b2" opacity="0.5"/><text x="800" y="872" fill="#6a6866" font-family="sans-serif" font-size="14" font-weight="600" letter-spacing="3" text-anchor="middle" opacity="0.6">IRONCLAD FRAME</text>
</svg>
