<svg xmlns="http://www.w3.org/2000/svg" viewBox="0 0 900 1200" width="900" height="1200" preserveAspectRatio="xMidYMid slice">
<defs>
<linearGradient id="bg" x1="0" y1="0" x2="1" y2="1">
<stop offset="0" stop-color="#1c2428"/>
<stop offset="1" stop-color="#28343a"/>
</linearGradient>
<linearGradient id="glow" x1="0" y1="0" x2="0" y2="1">
<stop offset="0" stop-color="#ffffff" stop-opacity="0.08"/>
<stop offset="1" stop-color="#000000" stop-opacity="0.35"/>
</linearGradient>
</defs>
<rect width="900" height="1200" fill="url(#bg)"/>
<rect width="900" height="1200" fill="url(#glow)"/>
<polygon points="467.6,887.5 259.2,815.7 162.5,617.6 234.3,409.2 432.4,312.5 640.8,384.3 737.5,582.4 665.7,790.8" fill="none" stroke="#8fa3b2" stroke-width="1.4" opacity="0.85"/>
<line x1="450.0" y1="600.0" x2="467.6" y2="887.5" stroke="#8fa3b2" stroke-width="0.8" opacity="0.35"/>
<line x1="450.0" y1="600.0" x2="259.2" y2="815.7" stroke="#8fa3b2" stroke-width="0.8" opacity="0.35"/>
<line x1="450.0" y1="600.0" x2="162.5" y2="617.6" stroke="#8fa3b2" stroke-width="0.8" opacity="0.35"/>
<line x1="450.0" y1="600.0" x2="234.3" y2="409.2" stroke="#8fa3b2" stroke-width="0.8" opacity="0.35"/>
<line x1="450.0" y1="600.0" x2="432.4" y2="312.5" stroke="#8fa3b2" stroke-width="0.8" opacity="0.35"/>
<line x1="450.0" y1="600.0" x2="640.8" y2="384.3" stroke="#8fa3b2" stroke-width="0.8" opacity="0.35"/>
<line x1="450.0" y1="600.0" x2="737.5" y2="582.4" stroke="#8fa3b2" stroke-width="0.8" opacity="0.35"/>
<line x1="450.0" y1="600.0" x2="665.7" y2="790.8" stroke="#8fa3b2" stroke-width="0.8" opacity="0.35"/>
<circle cx="341.5" cy="915.2" r="3" fill="#8fa3b2" opacity="0.8"/>
<circle cx="128.7" cy="756.7" r="3" fill="#8fa3b2" opacity="0.8"/>
<circle cx="124.6" cy="488.0" r="3" fill="#8fa3b2" opacity="0.8"/>
<circle cx="302.8" cy="298.2" r="3" fill="#8fa3b2" opacity="0.8"/>
<circle cx="565.8" cy="263.6" r="3" fill="#8fa3b2" opacity="0.8"/>
<circle cx="745.0" cy="456.1" r="3" fill="#8fa3b2" opacity="0.8"/>
<circle cx="789.6" cy="716.9" r="3" fill="#8fa3b2" opacity="0.8"/>
<circle cx="595.4" cy="898.0" r="3" fill="#8fa3b2" opacity="0.8"/><text x="450" y="1172" fill="#6a6866" font-family="sans-serif" font-size="14" font-weight="600" letter-spacing="3" text-anchor="middle" opacity="0.6">IRONCLAD FRAME</text>
</svg>
