<svg xmlns="http://www.w3.org/2000/svg" viewBox="0 0 900 1200" width="900" height="1200" preserveAspectRatio="xMidYMid slice">
<defs>
<linearGradient id="bg" x1="0" y1="0" x2="1" y2="1">
<stop offset="0" stop-color="#1a2233"/>
<stop offset="1" stop-color="#26304a"/>
</linearGradient>
<linearGradient id="glow" x1="0" y1="0" x2="0" y2="1">
<stop offset="0" stop-color="#ffffff" stop-opacity="0.08"/>
<stop offset="1" stop-color="#000000" stop-opacity="0.35"/>
</linearGradient>
</defs>
<rect width="900" height="1200" fill="url(#bg)"/>
<rect width="900" height="1200" fill="url(#glow)"/>
<polygon points="796.2,1020.8 658.3,976.9 921.3,1206.7" fill="#88a5d8" opacity="0.20"/>
<polygon points="161.1,595.2 62.2,701.6 183.4,616.8" fill="#88a5d8" opacity="0.09"/>
<polygon points="402.2,156.4 557.5,195.9 362.1,396.1" fill="#88a5d8" opacity="0.14"/>
<polygon points="301.2,721.9 440.1,758.8 189.8,726.9" fill="#88a5d8" opacity="0.07"/>
<polygon points="178.9,451.1 157.6,216.9 249.6,275.8" fill="#88a5d8" opacity="0.09"/>
<polygon points="62.4,74.0 -34.5,-55.0 -93.3,203.2" fill="#88a5d8" opacity="0.19"/>
<polygon points="545.6,30.4 482.8,254.0 641.8,-48.7" fill="#88a5d8" opacity="0.16"/>
<polygon points="92.7,942.5 104.8,918.2 181.9,892.1" fill="#88a5d8" opacity="0.21"/>
<polygon points="158.6,415.6 259.4,233.9 161.5,223.4" fill="#88a5d8" opacity="0.17"/>
<polygon points="736.8,306.0 605.5,239.2 589.6,216.7" fill="#88a5d8" opacity="0.13"/>
<polygon points="381.1,737.8 373.6,953.0 364.0,717.9" fill="#88a5d8" opacity="0.12"/>
<polygon points="430.9,227.9 582.2,129.5 287.7,337.2" fill="#88a5d8" opacity="0.13"/>
<polygon points="843.3,988.9 982.1,787.8 797.4,912.9" fill="#88a5d8" opacity="0.10"/>
<polygon points="271.1,928.9 115.0,789.7 146.4,1079.8" fill="#88a5d8" opacity="0.14"/>
<polygon points="239.2,54.1 211.8,64.3 398.9,-182.9" fill="#88a5d8" opacity="0.08"/>
<polygon points="403.6,970.9 545.6,1051.0 521.3,1013.3" fill="#88a5d8" opacity="0.08"/>
<polygon points="179.9,79.5 185.3,-143.3 202.3,121.5" fill="#88a5d8" opacity="0.17"/>
<polygon points="450.0,420.0 605.9,510.0 605.9,690.0 450.0,780.0 294.1,690.0 294.1,510.0" fill="none" stroke="#88a5d8" stroke-width="1.6" opacity="0.85"/><text x="450" y="1172" fill="#6a6866" font-family="sans-serif" font-size="14" font-weight="600" letter-spacing="3" text-anchor="middle" opacity="0.6">HELIX REVEAL</text>
</svg>
