<svg xmlns="http://www.w3.org/2000/svg" viewBox="0 0 1600 900" width="1600" height="900" preserveAspectRatio="xMidYMid slice">
<defs>
<linearGradient id="bg" x1="0" y1="0" x2="1" y2="1">
<stop offset="0" stop-color="#202428"/>
<stop offset="1" stop-color="#2c3034"/>
</linearGradient>
<linearGradient id="glow" x1="0" y1="0" x2="0" y2="1">
<stop offset="0" stop-color="#ffffff" stop-opacity="0.08"/>
<stop offset="1" stop-color="#000000" stop-opacity="0.35"/>
</linearGradient>
</defs>
<rect width="1600" height="900" fill="url(#bg)"/>
<rect width="1600" height="900" fill="url(#glow)"/>
<line x1="0" y1="0" x2="0" y2="900" stroke="#a8b5bd" stroke-width="0.6" opacity="0.12"/>
<line x1="114" y1="0" x2="114" y2="900" stroke="#a8b5bd" stroke-width="0.6" opacity="0.12"/>
<line x1="228" y1="0" x2="228" y2="900" stroke="#a8b5bd" stroke-width="0.6" opacity="0.12"/>
<line x1="342" y1="0" x2="342" y2="900" stroke="#a8b5bd" stroke-width="0.6" opacity="0.12"/>
<line x1="456" y1="0" x2="456" y2="900" stroke="#a8b5bd" stroke-width="0.6" opacity="0.12"/>
<line x1="570" y1="0" x2="570" y2="900" stroke="#a8b5bd" stroke-width="0.6" opacity="0.12"/>
<line x1="684" y1="0" x2="684" y2="900" stroke="#a8b5bd" stroke-width="0.6" opacity="0.12"/>
<line x1="798" y1="0" x2="798" y2="900" stroke="#a8b5bd" stroke-width="0.6" opacity="0.12"/>
<line x1="912" y1="0" x2="912" y2="900" stroke="#a8b5bd" stroke-width="0.6" opacity="0.12"/>
<line x1="1026" y1="0" x2="1026" y2="900" stroke="#a8b5bd" stroke-width="0.6" opacity="0.12"/>
<line x1="1140" y1="0" x2="1140" y2="900" stroke="#a8b5bd" stroke-width="0.6" opacity="0.12"/>
<line x1="1254" y1="0" x2="1254" y2="900" stroke="#a8b5bd" stroke-width="0.6" opacity="0.12"/>
<line x1="1368" y1="0" x2="1368" y2="900" stroke="#a8b5bd" stroke-width="0.6" opacity="0.12"/>
<line x1="1482" y1="0" x2="1482" y2="900" stroke="#a8b5bd" stroke-width="0.6" opacity="0.12"/>
<line x1="1596" y1="0" x2="1596" y2="900" stroke="#a8b5bd" stroke-width="0.6" opacity="0.12"/>
<line x1="0" y1="0" x2="1600" y2="0" stroke="#a8b5bd" stroke-width="0.6" opacity="0.12"/>
<line x1="0" y1="114" x2="1600" y2="114" stroke="#a8b5bd" stroke-width="0.6" opacity="0.12"/>
<line x1="0" y1="228" x2="1600" y2="228" stroke="#a8b5bd" stroke-width="0.6" opacity="0.12"/>
<line x1="0" y1="342" x2="1600" y2="342" stroke="#a8b5bd" stroke-width="0.6" opacity="0.12"/>
<line x1="0" y1="456" x2="1600" y2="456" stroke="#a8b5bd" stroke-width="0.6" opacity="0.12"/>
<line x1="0" y1="570" x2="1600" y2="570" stroke="#a8b5bd" stroke-width="0.6" opacity="0.12"/>
<line x1="0" y1="684" x2="1600" y2="684" stroke="#a8b5bd" stroke-width="0.6" opacity="0.12"/>
<line x1="0" y1="798" x2="1600" y2="798" stroke="#a8b5bd" stroke-width="0.6" opacity="0.12"/>
<rect x="1026" y="228" width="114" height="114" fill="#a8b5bd" opacity="0.37"/>
<rect x="570" y="684" width="114" height="114" fill="#a8b5bd" opacity="0.33"/>
<rect x="342" y="342" width="114" height="114" fill="#a8b5bd" opacity="0.11"/>
<rect x="228" y="456" width="114" height="114" fill="#a8b5bd" opacity="0.13"/>
<rect x="1368" y="342" width="114" height="114" fill="#a8b5bd" opacity="0.14"/>
<rect x="228" y="228" width="114" height="114" fill="#a8b5bd" opacity="0.25"/>
<rect x="228" y="684" width="114" height="114" fill="#a8b5bd" opacity="0.30"/>
<rect x="114" y="114" width="114" height="114" fill="#a8b5bd" opacity="0.21"/>
<rect x="912" y="570" width="114" height="114" fill="#a8b5bd" opacity="0.27"/>
<rect x="1140" y="228" width="114" height="114" fill="#a8b5bd" opacity="0.25"/>
<rect x="1026" y="114" width="114" height="114" fill="#a8b5bd" opacity="0.31"/>
<rect x="798" y="228" width="114" height="114" fill="#a8b5bd" opacity="0.34"/>
<rect x="1482" y="684" width="114" height="114" fill="#a8b5bd" opacity="0.40"/>
<rect x="1482" y="114" width="114" height="114" fill="#a8b5bd" opacity="0.29"/>
<rect x="228" y="228" width="114" height="114" fill="#a8b5bd" opacity="0.36"/>
<rect x="684" y="570" width="114" height="114" fill="#a8b5bd" opacity="0.27"/>
<rect x="1254" y="684" width="114" height="114" fill="#a8b5bd" opacity="0.25"/>
<rect x="570" y="228" width="114" height="114" fill="#a8b5bd" opacity="0.30"/>
<rect x="1254" y="342" width="114" height="114" fill="#a8b5bd" opacity="0.27"/>
<rect x="1482" y="684" width="114" height="114" fill="#a8b5bd" opacity="0.29"/>
<rect x="1140" y="114" width="114" height="114" fill="#a8b5bd" opacity="0.22"/>
<rect x="456" y="342" width="114" height="114" fill="#a8b5bd" opacity="0.27"/>
<rect x="1140" y="570" width="114" height="114" fill="#a8b5bd" opacity="0.34"/>
<rect x="798" y="684" width="114" height="114" fill="#a8b5bd" opacity="0.35"/>
<rect x="1254" y="114" width="114" height="114" fill="#a8b5bd" opacity="0.40"/>
<line x1="240.0" y1="450.0" x2="1360.0" y2="450.0" stroke="#a8b5bd" stroke-width="1.4" opacity="0.55"/><text x="800" y="872" fill="#6a6866" font-family="sans-serif" font-size="14" font-weight="600" letter-spacing="3" text-anchor="middle" opacity="0.6">APEX FRAME</text>
</svg>
