<svg xmlns="http://www.w3.org/2000/svg" viewBox="0 0 900 1200" width="900" height="1200" preserveAspectRatio="xMidYMid slice">
<defs>
<linearGradient id="bg" x1="0" y1="0" x2="1" y2="1">
<stop offset="0" stop-color="#202428"/>
<stop offset="1" stop-color="#2c3034"/>
</linearGradient>
<linearGradient id="glow" x1="0" y1="0" x2="0" y2="1">
<stop offset="0" stop-color="#ffffff" stop-opacity="0.08"/>
<stop offset="1" stop-color="#000000" stop-opacity="0.35"/>
</linearGradient>
</defs>
<rect width="900" height="1200" fill="url(#bg)"/>
<rect width="900" height="1200" fill="url(#glow)"/>
<path d="M 507.1 487.7 A 126.0 126.0 0 0 1 542.5 685.6" fill="none" stroke="#a8b5bd" stroke-width="1.4" opacity="0.25"/>
<path d="M 577.7 713.7 A 171.0 171.0 0 0 1 315.9 493.9" fill="none" stroke="#a8b5bd" stroke-width="1.4" opacity="0.40"/>
<path d="M 438.9 815.7 A 216.0 216.0 0 0 1 242.2 541.2" fill="none" stroke="#a8b5bd" stroke-width="1.4" opacity="0.55"/>
<path d="M 637.3 781.8 A 261.0 261.0 0 0 1 189.2 589.0" fill="none" stroke="#a8b5bd" stroke-width="1.4" opacity="0.25"/>
<path d="M 652.4 370.5 A 306.0 306.0 0 1 1 144.2 611.4" fill="none" stroke="#a8b5bd" stroke-width="1.4" opacity="0.40"/>
<path d="M 766.3 447.9 A 351.0 351.0 0 1 1 169.7 388.8" fill="none" stroke="#a8b5bd" stroke-width="1.4" opacity="0.55"/>
<circle cx="450.0" cy="600.0" r="54.0" fill="#a8b5bd" opacity="0.9"/><text x="450" y="1172" fill="#6a6866" font-family="sans-serif" font-size="14" font-weight="600" letter-spacing="3" text-anchor="middle" opacity="0.6">APEX FRAME</text>
</svg>
