<svg xmlns="http://www.w3.org/2000/svg" viewBox="0 0 1600 900" width="1600" height="900" preserveAspectRatio="xMidYMid slice">
<defs>
<linearGradient id="bg" x1="0" y1="0" x2="1" y2="1">
<stop offset="0" stop-color="#1c2030"/>
<stop offset="1" stop-color="#28303e"/>
</linearGradient>
<linearGradient id="glow" x1="0" y1="0" x2="0" y2="1">
<stop offset="0" stop-color="#ffffff" stop-opacity="0.08"/>
<stop offset="1" stop-color="#000000" stop-opacity="0.35"/>
</linearGradient>
</defs>
<rect width="1600" height="900" fill="url(#bg)"/>
<rect width="1600" height="900" fill="url(#glow)"/>
<polygon points="250.9,324.0 504.5,480.8 14.0,171.4" fill="#7fb2d1" opacity="0.10"/>
<polygon points="145.3,125.9 192.8,125.2 237.2,177.3" fill="#7fb2d1" opacity="0.07"/>
<polygon points="1265.2,219.6 1023.7,84.2 1335.3,50.2" fill="#7fb2d1" opacity="0.11"/>
<polygon points="421.2,8.9 174.1,-160.4 622.8,-52.8" fill="#7fb2d1" opacity="0.09"/>
<polygon points="684.4,585.5 405.9,639.2 624.5,567.2" fill="#7fb2d1" opacity="0.07"/>
<polygon points="1196.7,762.5 1297.9,739.0 1047.6,593.9" fill="#7fb2d1" opacity="0.07"/>
<polygon points="505.4,289.1 558.5,277.1 656.3,358.6" fill="#7fb2d1" opacity="0.12"/>
<polygon points="391.8,573.8 469.6,646.7 504.1,674.0" fill="#7fb2d1" opacity="0.07"/>
<polygon points="1356.5,421.2 1158.7,432.3 1111.8,404.7" fill="#7fb2d1" opacity="0.06"/>
<polygon points="98.6,551.3 -213.1,513.2 -8.2,716.7" fill="#7fb2d1" opacity="0.10"/>
<polygon points="353.9,440.2 426.8,456.0 553.7,511.6" fill="#7fb2d1" opacity="0.19"/>
<polygon points="192.6,89.9 248.1,159.7 237.9,65.2" fill="#7fb2d1" opacity="0.19"/>
<polygon points="47.7,205.2 -61.6,236.5 187.1,159.5" fill="#7fb2d1" opacity="0.10"/>
<polygon points="1082.2,187.5 861.8,20.7 1123.9,195.2" fill="#7fb2d1" opacity="0.18"/>
<polygon points="1427.2,611.5 1449.2,657.4 1673.7,497.4" fill="#7fb2d1" opacity="0.11"/>
<polygon points="407.5,687.5 272.7,785.3 166.9,785.2" fill="#7fb2d1" opacity="0.18"/>
<polygon points="566.7,534.3 675.5,469.8 667.6,660.2" fill="#7fb2d1" opacity="0.15"/>
<polygon points="800.0,270.0 955.9,360.0 955.9,540.0 800.0,630.0 644.1,540.0 644.1,360.0" fill="none" stroke="#7fb2d1" stroke-width="1.6" opacity="0.85"/><text x="800" y="872" fill="#6a6866" font-family="sans-serif" font-size="14" font-weight="600" letter-spacing="3" text-anchor="middle" opacity="0.6">RECON DRONE</text>
</svg>
