<svg xmlns="http://www.w3.org/2000/svg" viewBox="0 0 1600 900" width="1600" height="900" preserveAspectRatio="xMidYMid slice">
<defs>
<linearGradient id="bg" x1="0" y1="0" x2="1" y2="1">
<stop offset="0" stop-color="#1a1816"/>
<stop offset="1" stop-color="#2a2520"/>
</linearGradient>
<linearGradient id="glow" x1="0" y1="0" x2="0" y2="1">
<stop offset="0" stop-color="#ffffff" stop-opacity="0.08"/>
<stop offset="1" stop-color="#000000" stop-opacity="0.35"/>
</linearGradient>
</defs>
<rect width="1600" height="900" fill="url(#bg)"/>
<rect width="1600" height="900" fill="url(#glow)"/>
<line x1="800.0" y1="495.00000000000006" x2="1069.9" y2="502.9" stroke="#d4a574" stroke-width="1.4" opacity="0.25"/>
<circle cx="1069.9" cy="502.9" r="4" fill="#d4a574" opacity="0.8"/>
<line x1="800.0" y1="495.00000000000006" x2="1028.9" y2="638.1" stroke="#d4a574" stroke-width="1.4" opacity="0.40"/>
<circle cx="1028.9" cy="638.1" r="4" fill="#d4a574" opacity="0.8"/>
<line x1="800.0" y1="495.00000000000006" x2="943.0" y2="724.0" stroke="#d4a574" stroke-width="1.4" opacity="0.55"/>
<circle cx="943.0" cy="724.0" r="4" fill="#d4a574" opacity="0.8"/>
<line x1="800.0" y1="495.00000000000006" x2="807.3" y2="764.9" stroke="#d4a574" stroke-width="1.4" opacity="0.25"/>
<circle cx="807.3" cy="764.9" r="4" fill="#d4a574" opacity="0.8"/>
<line x1="800.0" y1="495.00000000000006" x2="663.3" y2="727.9" stroke="#d4a574" stroke-width="1.4" opacity="0.40"/>
<circle cx="663.3" cy="727.9" r="4" fill="#d4a574" opacity="0.8"/>
<line x1="800.0" y1="495.00000000000006" x2="565.5" y2="628.8" stroke="#d4a574" stroke-width="1.4" opacity="0.55"/>
<circle cx="565.5" cy="628.8" r="4" fill="#d4a574" opacity="0.8"/>
<line x1="800.0" y1="495.00000000000006" x2="530.0" y2="493.4" stroke="#d4a574" stroke-width="1.4" opacity="0.25"/>
<circle cx="530.0" cy="493.4" r="4" fill="#d4a574" opacity="0.8"/>
<line x1="800.0" y1="495.00000000000006" x2="571.6" y2="351.0" stroke="#d4a574" stroke-width="1.4" opacity="0.40"/>
<circle cx="571.6" cy="351.0" r="4" fill="#d4a574" opacity="0.8"/>
<line x1="800.0" y1="495.00000000000006" x2="656.0" y2="266.6" stroke="#d4a574" stroke-width="1.4" opacity="0.55"/>
<circle cx="656.0" cy="266.6" r="4" fill="#d4a574" opacity="0.8"/>
<line x1="800.0" y1="495.00000000000006" x2="786.7" y2="225.3" stroke="#d4a574" stroke-width="1.4" opacity="0.25"/>
<circle cx="786.7" cy="225.3" r="4" fill="#d4a574" opacity="0.8"/>
<line x1="800.0" y1="495.00000000000006" x2="937.2" y2="262.5" stroke="#d4a574" stroke-width="1.4" opacity="0.40"/>
<circle cx="937.2" cy="262.5" r="4" fill="#d4a574" opacity="0.8"/>
<line x1="800.0" y1="495.00000000000006" x2="1040.2" y2="371.8" stroke="#d4a574" stroke-width="1.4" opacity="0.55"/>
<circle cx="1040.2" cy="371.8" r="4" fill="#d4a574" opacity="0.8"/>
<circle cx="800.0" cy="495.00000000000006" r="45.0" fill="#d4a574" opacity="0.95"/><text x="800" y="872" fill="#6a6866" font-family="sans-serif" font-size="14" font-weight="600" letter-spacing="3" text-anchor="middle" opacity="0.6">NYX PANTHER</text>
</svg>
