<svg xmlns="http://www.w3.org/2000/svg" viewBox="0 0 1600 900" width="1600" height="900" preserveAspectRatio="xMidYMid slice">
<defs>
<linearGradient id="bg" x1="0" y1="0" x2="1" y2="1">
<stop offset="0" stop-color="#1f1a2a"/>
<stop offset="1" stop-color="#2a2438"/>
</linearGradient>
<linearGradient id="glow" x1="0" y1="0" x2="0" y2="1">
<stop offset="0" stop-color="#ffffff" stop-opacity="0.08"/>
<stop offset="1" stop-color="#000000" stop-opacity="0.35"/>
</linearGradient>
</defs>
<rect width="1600" height="900" fill="url(#bg)"/>
<rect width="1600" height="900" fill="url(#glow)"/>
<ellipse cx="800.0" cy="450.0" rx="135.0" ry="72.1" fill="none" stroke="#b08fd0" stroke-width="1.1" opacity="0.25" transform="rotate(-1.9 800.0 450.0)"/>
<ellipse cx="800.0" cy="450.0" rx="216.0" ry="99.8" fill="none" stroke="#b08fd0" stroke-width="1.1" opacity="0.35" transform="rotate(-16.7 800.0 450.0)"/>
<ellipse cx="800.0" cy="450.0" rx="297.0" ry="129.6" fill="none" stroke="#b08fd0" stroke-width="1.1" opacity="0.45" transform="rotate(12.7 800.0 450.0)"/>
<ellipse cx="800.0" cy="450.0" rx="378.0" ry="176.7" fill="none" stroke="#b08fd0" stroke-width="1.1" opacity="0.55" transform="rotate(3.7 800.0 450.0)"/>
<ellipse cx="800.0" cy="450.0" rx="459.0" ry="205.1" fill="none" stroke="#b08fd0" stroke-width="1.1" opacity="0.65" transform="rotate(23.8 800.0 450.0)"/>
<circle cx="800.0" cy="450.0" r="36.0" fill="#b08fd0" opacity="0.9"/>
<circle cx="800.0" cy="450.0" r="72.0" fill="none" stroke="#b08fd0" stroke-width="1.4" opacity="0.7"/>
<circle cx="922.7" cy="309.1" r="3.1" fill="#b08fd0" opacity="0.85"/>
<circle cx="537.7" cy="344.9" r="3.0" fill="#b08fd0" opacity="0.85"/>
<circle cx="1139.2" cy="396.0" r="6.0" fill="#b08fd0" opacity="0.85"/>
<circle cx="434.7" cy="340.1" r="5.8" fill="#b08fd0" opacity="0.85"/>
<circle cx="546.1" cy="305.8" r="3.2" fill="#b08fd0" opacity="0.85"/>
<circle cx="1077.9" cy="423.3" r="4.9" fill="#b08fd0" opacity="0.85"/>
<circle cx="1031.8" cy="379.6" r="3.3" fill="#b08fd0" opacity="0.85"/><text x="800" y="872" fill="#6a6866" font-family="sans-serif" font-size="14" font-weight="600" letter-spacing="3" text-anchor="middle" opacity="0.6">ARC MOTION</text>
</svg>
