<svg xmlns="http://www.w3.org/2000/svg" viewBox="0 0 1600 900" width="1600" height="900" preserveAspectRatio="xMidYMid slice">
<defs>
<linearGradient id="bg" x1="0" y1="0" x2="1" y2="1">
<stop offset="0" stop-color="#1f1a2a"/>
<stop offset="1" stop-color="#2a2438"/>
</linearGradient>
<linearGradient id="glow" x1="0" y1="0" x2="0" y2="1">
<stop offset="0" stop-color="#ffffff" stop-opacity="0.08"/>
<stop offset="1" stop-color="#000000" stop-opacity="0.35"/>
</linearGradient>
</defs>
<rect width="1600" height="900" fill="url(#bg)"/>
<rect width="1600" height="900" fill="url(#glow)"/>
<line x1="-900" y1="0" x2="0" y2="900" stroke="#b08fd0" stroke-width="0.6" opacity="0.14"/>
<line x1="-810" y1="0" x2="90" y2="900" stroke="#b08fd0" stroke-width="0.6" opacity="0.14"/>
<line x1="-720" y1="0" x2="180" y2="900" stroke="#b08fd0" stroke-width="0.6" opacity="0.14"/>
<line x1="-630" y1="0" x2="270" y2="900" stroke="#b08fd0" stroke-width="0.6" opacity="0.14"/>
<line x1="-540" y1="0" x2="360" y2="900" stroke="#b08fd0" stroke-width="0.6" opacity="0.14"/>
<line x1="-450" y1="0" x2="450" y2="900" stroke="#b08fd0" stroke-width="0.6" opacity="0.14"/>
<line x1="-360" y1="0" x2="540" y2="900" stroke="#b08fd0" stroke-width="0.6" opacity="0.14"/>
<line x1="-270" y1="0" x2="630" y2="900" stroke="#b08fd0" stroke-width="0.6" opacity="0.14"/>
<line x1="-180" y1="0" x2="720" y2="900" stroke="#b08fd0" stroke-width="0.6" opacity="0.14"/>
<line x1="-90" y1="0" x2="810" y2="900" stroke="#b08fd0" stroke-width="0.6" opacity="0.14"/>
<line x1="0" y1="0" x2="900" y2="900" stroke="#b08fd0" stroke-width="0.6" opacity="0.14"/>
<line x1="90" y1="0" x2="990" y2="900" stroke="#b08fd0" stroke-width="0.6" opacity="0.14"/>
<line x1="180" y1="0" x2="1080" y2="900" stroke="#b08fd0" stroke-width="0.6" opacity="0.14"/>
<line x1="270" y1="0" x2="1170" y2="900" stroke="#b08fd0" stroke-width="0.6" opacity="0.14"/>
<line x1="360" y1="0" x2="1260" y2="900" stroke="#b08fd0" stroke-width="0.6" opacity="0.14"/>
<line x1="450" y1="0" x2="1350" y2="900" stroke="#b08fd0" stroke-width="0.6" opacity="0.14"/>
<line x1="540" y1="0" x2="1440" y2="900" stroke="#b08fd0" stroke-width="0.6" opacity="0.14"/>
<line x1="630" y1="0" x2="1530" y2="900" stroke="#b08fd0" stroke-width="0.6" opacity="0.14"/>
<line x1="720" y1="0" x2="1620" y2="900" stroke="#b08fd0" stroke-width="0.6" opacity="0.14"/>
<line x1="810" y1="0" x2="1710" y2="900" stroke="#b08fd0" stroke-width="0.6" opacity="0.14"/>
<line x1="900" y1="0" x2="1800" y2="900" stroke="#b08fd0" stroke-width="0.6" opacity="0.14"/>
<line x1="990" y1="0" x2="1890" y2="900" stroke="#b08fd0" stroke-width="0.6" opacity="0.14"/>
<line x1="1080" y1="0" x2="1980" y2="900" stroke="#b08fd0" stroke-width="0.6" opacity="0.14"/>
<line x1="1170" y1="0" x2="2070" y2="900" stroke="#b08fd0" stroke-width="0.6" opacity="0.14"/>
<line x1="1260" y1="0" x2="2160" y2="900" stroke="#b08fd0" stroke-width="0.6" opacity="0.14"/>
<line x1="1350" y1="0" x2="2250" y2="900" stroke="#b08fd0" stroke-width="0.6" opacity="0.14"/>
<line x1="1440" y1="0" x2="2340" y2="900" stroke="#b08fd0" stroke-width="0.6" opacity="0.14"/>
<line x1="1530" y1="0" x2="2430" y2="900" stroke="#b08fd0" stroke-width="0.6" opacity="0.14"/>
<line x1="1620" y1="0" x2="2520" y2="900" stroke="#b08fd0" stroke-width="0.6" opacity="0.14"/>
<line x1="1710" y1="0" x2="2610" y2="900" stroke="#b08fd0" stroke-width="0.6" opacity="0.14"/>
<line x1="1800" y1="0" x2="2700" y2="900" stroke="#b08fd0" stroke-width="0.6" opacity="0.14"/>
<line x1="1890" y1="0" x2="2790" y2="900" stroke="#b08fd0" stroke-width="0.6" opacity="0.14"/>
<line x1="1980" y1="0" x2="2880" y2="900" stroke="#b08fd0" stroke-width="0.6" opacity="0.14"/>
<line x1="2070" y1="0" x2="2970" y2="900" stroke="#b08fd0" stroke-width="0.6" opacity="0.14"/>
<line x1="2160" y1="0" x2="3060" y2="900" stroke="#b08fd0" stroke-width="0.6" opacity="0.14"/>
<line x1="2250" y1="0" x2="3150" y2="900" stroke="#b08fd0" stroke-width="0.6" opacity="0.14"/>
<line x1="2340" y1="0" x2="3240" y2="900" stroke="#b08fd0" stroke-width="0.6" opacity="0.14"/>
<line x1="2430" y1="0" x2="3330" y2="900" stroke="#b08fd0" stroke-width="0.6" opacity="0.14"/>
<line x1="-900" y1="900" x2="0" y2="0" stroke="#b08fd0" stroke-width="0.6" opacity="0.14"/>
<line x1="-810" y1="900" x2="90" y2="0" stroke="#b08fd0" stroke-width="0.6" opacity="0.14"/>
<line x1="-720" y1="900" x2="180" y2="0" stroke="#b08fd0" stroke-width="0.6" opacity="0.14"/>
<line x1="-630" y1="900" x2="270" y2="0" stroke="#b08fd0" stroke-width="0.6" opacity="0.14"/>
<line x1="-540" y1="900" x2="360" y2="0" stroke="#b08fd0" stroke-width="0.6" opacity="0.14"/>
<line x1="-450" y1="900" x2="450" y2="0" stroke="#b08fd0" stroke-width="0.6" opacity="0.14"/>
<line x1="-360" y1="900" x2="540" y2="0" stroke="#b08fd0" stroke-width="0.6" opacity="0.14"/>
<line x1="-270" y1="900" x2="630" y2="0" stroke="#b08fd0" stroke-width="0.6" opacity="0.14"/>
<line x1="-180" y1="900" x2="720" y2="0" stroke="#b08fd0" stroke-width="0.6" opacity="0.14"/>
<line x1="-90" y1="900" x2="810" y2="0" stroke="#b08fd0" stroke-width="0.6" opacity="0.14"/>
<line x1="0" y1="900" x2="900" y2="0" stroke="#b08fd0" stroke-width="0.6" opacity="0.14"/>
<line x1="90" y1="900" x2="990" y2="0" stroke="#b08fd0" stroke-width="0.6" opacity="0.14"/>
<line x1="180" y1="900" x2="1080" y2="0" stroke="#b08fd0" stroke-width="0.6" opacity="0.14"/>
<line x1="270" y1="900" x2="1170" y2="0" stroke="#b08fd0" stroke-width="0.6" opacity="0.14"/>
<line x1="360" y1="900" x2="1260" y2="0" stroke="#b08fd0" stroke-width="0.6" opacity="0.14"/>
<line x1="450" y1="900" x2="1350" y2="0" stroke="#b08fd0" stroke-width="0.6" opacity="0.14"/>
<line x1="540" y1="900" x2="1440" y2="0" stroke="#b08fd0" stroke-width="0.6" opacity="0.14"/>
<line x1="630" y1="900" x2="1530" y2="0" stroke="#b08fd0" stroke-width="0.6" opacity="0.14"/>
<line x1="720" y1="900" x2="1620" y2="0" stroke="#b08fd0" stroke-width="0.6" opacity="0.14"/>
<line x1="810" y1="900" x2="1710" y2="0" stroke="#b08fd0" stroke-width="0.6" opacity="0.14"/>
<line x1="900" y1="900" x2="1800" y2="0" stroke="#b08fd0" stroke-width="0.6" opacity="0.14"/>
<line x1="990" y1="900" x2="1890" y2="0" stroke="#b08fd0" stroke-width="0.6" opacity="0.14"/>
<line x1="1080" y1="900" x2="1980" y2="0" stroke="#b08fd0" stroke-width="0.6" opacity="0.14"/>
<line x1="1170" y1="900" x2="2070" y2="0" stroke="#b08fd0" stroke-width="0.6" opacity="0.14"/>
<line x1="1260" y1="900" x2="2160" y2="0" stroke="#b08fd0" stroke-width="0.6" opacity="0.14"/>
<line x1="1350" y1="900" x2="2250" y2="0" stroke="#b08fd0" stroke-width="0.6" opacity="0.14"/>
<line x1="1440" y1="900" x2="2340" y2="0" stroke="#b08fd0" stroke-width="0.6" opacity="0.14"/>
<line x1="1530" y1="900" x2="2430" y2="0" stroke="#b08fd0" stroke-width="0.6" opacity="0.14"/>
<line x1="1620" y1="900" x2="2520" y2="0" stroke="#b08fd0" stroke-width="0.6" opacity="0.14"/>
<line x1="1710" y1="900" x2="2610" y2="0" stroke="#b08fd0" stroke-width="0.6" opacity="0.14"/>
<line x1="1800" y1="900" x2="2700" y2="0" stroke="#b08fd0" stroke-width="0.6" opacity="0.14"/>
<line x1="1890" y1="900" x2="2790" y2="0" stroke="#b08fd0" stroke-width="0.6" opacity="0.14"/>
<line x1="1980" y1="900" x2="2880" y2="0" stroke="#b08fd0" stroke-width="0.6" opacity="0.14"/>
<line x1="2070" y1="900" x2="2970" y2="0" stroke="#b08fd0" stroke-width="0.6" opacity="0.14"/>
<line x1="2160" y1="900" x2="3060" y2="0" stroke="#b08fd0" stroke-width="0.6" opacity="0.14"/>
<line x1="2250" y1="900" x2="3150" y2="0" stroke="#b08fd0" stroke-width="0.6" opacity="0.14"/>
<line x1="2340" y1="900" x2="3240" y2="0" stroke="#b08fd0" stroke-width="0.6" opacity="0.14"/>
<line x1="2430" y1="900" x2="3330" y2="0" stroke="#b08fd0" stroke-width="0.6" opacity="0.14"/>
<circle cx="405.4" cy="504.0" r="4.7" fill="#b08fd0" opacity="0.5"/>
<circle cx="383.1" cy="775.5" r="5.8" fill="#b08fd0" opacity="0.5"/>
<circle cx="550.9" cy="639.3" r="7.2" fill="#b08fd0" opacity="0.5"/>
<circle cx="1251.0" cy="614.4" r="6.5" fill="#b08fd0" opacity="0.5"/>
<circle cx="549.4" cy="692.1" r="7.4" fill="#b08fd0" opacity="0.5"/>
<circle cx="1393.4" cy="206.6" r="6.4" fill="#b08fd0" opacity="0.5"/>
<circle cx="1040.6" cy="707.8" r="4.7" fill="#b08fd0" opacity="0.5"/>
<circle cx="840.5" cy="529.7" r="6.5" fill="#b08fd0" opacity="0.5"/>
<circle cx="175.1" cy="309.1" r="7.3" fill="#b08fd0" opacity="0.5"/>
<circle cx="1045.4" cy="323.0" r="7.0" fill="#b08fd0" opacity="0.5"/>
<circle cx="556.0" cy="100.9" r="6.8" fill="#b08fd0" opacity="0.5"/>
<circle cx="1208.4" cy="146.6" r="6.4" fill="#b08fd0" opacity="0.5"/>
<circle cx="164.4" cy="501.5" r="4.5" fill="#b08fd0" opacity="0.5"/>
<circle cx="447.0" cy="741.2" r="4.4" fill="#b08fd0" opacity="0.5"/>
<circle cx="1167.3" cy="427.0" r="6.0" fill="#b08fd0" opacity="0.5"/>
<circle cx="1323.0" cy="773.7" r="5.5" fill="#b08fd0" opacity="0.5"/>
<circle cx="1264.9" cy="105.4" r="6.8" fill="#b08fd0" opacity="0.5"/>
<circle cx="749.7" cy="772.2" r="6.1" fill="#b08fd0" opacity="0.5"/><text x="800" y="872" fill="#6a6866" font-family="sans-serif" font-size="14" font-weight="600" letter-spacing="3" text-anchor="middle" opacity="0.6">ARC MOTION</text>
</svg>
