<svg xmlns="http://www.w3.org/2000/svg" viewBox="0 0 1600 900" width="1600" height="900" preserveAspectRatio="xMidYMid slice">
<defs>
<linearGradient id="bg" x1="0" y1="0" x2="1" y2="1">
<stop offset="0" stop-color="#161e24"/>
<stop offset="1" stop-color="#1f2a34"/>
</linearGradient>
<linearGradient id="glow" x1="0" y1="0" x2="0" y2="1">
<stop offset="0" stop-color="#ffffff" stop-opacity="0.08"/>
<stop offset="1" stop-color="#000000" stop-opacity="0.35"/>
</linearGradient>
</defs>
<rect width="1600" height="900" fill="url(#bg)"/>
<rect width="1600" height="900" fill="url(#glow)"/>
<polyline points="0,162.6 20,159.0 40,155.1 60,150.9 80,146.5 100,141.9 120,137.2 140,132.5 160,127.8 180,123.3 200,118.9 220,114.7 240,110.8 260,107.3 280,104.1 300,101.4 320,99.2 340,97.5 360,96.4 380,95.7 400,95.7 420,96.2 440,97.3 460,98.9 480,101.0 500,103.6 520,106.7 540,110.2 560,114.0 580,118.1 600,122.5 620,127.0 640,131.7 660,136.4 680,141.1 700,145.7 720,150.2 740,154.4 760,158.3 780,162.0 800,165.2 820,168.0 840,170.3 860,172.1 880,173.4 900,174.2 920,174.3 940,174.0 960,173.0 980,171.5 1000,169.5 1020,167.0 1040,164.0 1060,160.7 1080,156.9 1100,152.8 1120,148.5 1140,144.0 1160,139.4 1180,134.7 1200,130.0 1220,125.3 1240,120.8 1260,116.6 1280,112.5 1300,108.8 1320,105.5 1340,102.6 1360,100.2 1380,98.2 1400,96.8 1420,95.9 1440,95.6 1460,95.9 1480,96.7 1500,98.1 1520,100.0 1540,102.4 1560,105.3 1580,108.5 1600,112.2" fill="none" stroke="#e88a4a" stroke-width="1.2" opacity="0.15"/>
<polyline points="0,174.0 20,168.7 40,163.7 60,159.0 80,154.8 100,151.1 120,148.0 140,145.6 160,143.9 180,142.9 200,142.7 220,143.4 240,144.7 260,146.9 280,149.7 300,153.1 320,157.2 340,161.7 360,166.5 380,171.7 400,177.0 420,182.4 440,187.8 460,193.0 480,197.9 500,202.4 520,206.5 540,210.0 560,212.9 580,215.1 600,216.5 620,217.2 640,217.1 660,216.3 680,214.6 700,212.3 720,209.2 740,205.6 760,201.4 780,196.8 800,191.8 820,186.5 840,181.2 860,175.8 880,170.5 900,165.4 920,160.6 940,156.2 960,152.3 980,149.0 1000,146.3 1020,144.4 1040,143.1 1060,142.7 1080,143.1 1100,144.2 1120,146.1 1140,148.6 1160,151.9 1180,155.7 1200,160.1 1220,164.8 1240,169.9 1260,175.2 1280,180.6 1300,186.0 1320,191.2 1340,196.3 1360,200.9 1380,205.2 1400,208.9 1420,212.0 1440,214.4 1460,216.1 1480,217.1 1500,217.3 1520,216.7 1540,215.3 1560,213.2 1580,210.4 1600,206.9" fill="none" stroke="#e88a4a" stroke-width="1.2" opacity="0.25"/>
<polyline points="0,242.5 20,245.4 40,247.8 60,249.8 80,251.4 100,252.5 120,253.1 140,253.2 160,252.8 180,251.9 200,250.5 220,248.6 240,246.3 260,243.7 280,240.7 300,237.4 320,233.8 340,230.2 360,226.4 380,222.6 400,218.8 420,215.2 440,211.7 460,208.5 480,205.6 500,203.0 520,200.8 540,199.1 560,197.8 580,197.0 600,196.7 620,197.0 640,197.7 660,199.0 680,200.7 700,202.8 720,205.4 740,208.3 760,211.5 780,214.9 800,218.6 820,222.3 840,226.1 860,229.9 880,233.6 900,237.1 920,240.4 940,243.5 960,246.2 980,248.5 1000,250.4 1020,251.8 1040,252.8 1060,253.2 1080,253.2 1100,252.6 1120,251.5 1140,250.0 1160,248.0 1180,245.6 1200,242.8 1220,239.7 1240,236.3 1260,232.7 1280,229.0 1300,225.2 1320,221.4 1340,217.7 1360,214.1 1380,210.7 1400,207.6 1420,204.7 1440,202.3 1460,200.2 1480,198.6 1500,197.5 1520,196.9 1540,196.8 1560,197.2 1580,198.1 1600,199.4" fill="none" stroke="#e88a4a" stroke-width="1.2" opacity="0.35"/>
<polyline points="0,325.5 20,328.0 40,326.8 60,321.7 80,313.2 100,301.9 120,288.4 140,273.7 160,258.7 180,244.5 200,232.0 220,222.0 240,215.2 260,212.1 280,212.8 300,217.3 320,225.3 340,236.3 360,249.5 380,264.1 400,279.1 420,293.5 440,306.3 460,316.7 480,324.0 500,327.7 520,327.5 540,323.6 560,316.1 580,305.5 600,292.5 620,278.1 640,263.1 660,248.6 680,235.5 700,224.7 720,216.9 740,212.6 760,212.2 780,215.6 800,222.6 820,232.8 840,245.4 860,259.7 880,274.6 900,289.3 920,302.7 940,313.9 960,322.2 980,327.0 1000,328.0 1020,325.2 1040,318.7 1060,308.9 1080,296.6 1100,282.5 1120,267.6 1140,252.8 1160,239.2 1180,227.6 1200,218.9 1220,213.5 1240,211.9 1260,214.2 1280,220.2 1300,229.5 1320,241.4 1340,255.3 1360,270.2 1380,285.0 1400,298.9 1420,310.8 1440,320.0 1460,325.9 1480,328.1 1500,326.4 1520,321.0 1540,312.1 1560,300.5 1580,286.8 1600,272.0" fill="none" stroke="#e88a4a" stroke-width="1.2" opacity="0.45"/>
<polyline points="0,339.1 20,346.9 40,354.0 60,360.2 80,365.5 100,369.7 120,372.7 140,374.4 160,374.8 180,373.9 200,371.7 220,368.3 240,363.8 260,358.2 280,351.6 300,344.2 320,336.2 340,327.7 360,319.0 380,310.2 400,301.4 420,293.0 440,285.1 460,277.8 480,271.3 500,265.7 520,261.3 540,258.0 560,255.9 580,255.2 600,255.7 620,257.6 640,260.7 660,264.9 680,270.3 700,276.7 720,283.8 740,291.7 760,300.1 780,308.8 800,317.6 820,326.4 840,334.9 860,343.0 880,350.4 900,357.2 920,362.9 940,367.7 960,371.3 980,373.7 1000,374.7 1020,374.5 1040,373.0 1060,370.2 1080,366.3 1100,361.2 1120,355.1 1140,348.1 1160,340.4 1180,332.1 1200,323.5 1220,314.7 1240,305.9 1260,297.3 1280,289.0 1300,281.4 1320,274.5 1340,268.4 1360,263.4 1380,259.5 1400,256.8 1420,255.4 1440,255.3 1460,256.5 1480,258.9 1500,262.6 1520,267.4 1540,273.3 1560,280.1 1580,287.6 1600,295.7" fill="none" stroke="#e88a4a" stroke-width="1.2" opacity="0.15"/>
<polyline points="0,366.4 20,357.1 40,347.9 60,339.3 80,331.8 100,325.8 120,321.6 140,319.4 160,319.3 180,321.4 200,325.4 220,331.3 240,338.7 260,347.3 280,356.4 300,365.8 320,374.9 340,383.2 360,390.2 380,395.7 400,399.3 420,400.9 440,400.3 460,397.6 480,392.9 500,386.5 520,378.7 540,370.0 560,360.7 580,351.4 600,342.5 620,334.5 640,327.9 660,323.0 680,320.0 700,319.1 720,320.3 740,323.6 760,328.9 780,335.7 800,343.9 820,352.8 840,362.2 860,371.4 880,380.1 900,387.7 920,393.8 940,398.2 960,400.5 980,400.8 1000,398.9 1020,395.0 1040,389.2 1060,381.9 1080,373.5 1100,364.3 1120,354.9 1140,345.8 1160,337.5 1180,330.3 1200,324.7 1220,320.9 1240,319.2 1260,319.6 1280,322.1 1300,326.6 1320,332.9 1340,340.6 1360,349.3 1380,358.6 1400,367.9 1420,376.8 1440,384.9 1460,391.6 1480,396.7 1500,399.9 1520,400.9 1540,399.9 1560,396.7 1580,391.6 1600,384.9" fill="none" stroke="#e88a4a" stroke-width="1.2" opacity="0.25"/>
<polyline points="0,432.4 20,433.0 40,433.1 60,432.6 80,431.7 100,430.3 120,428.5 140,426.2 160,423.5 180,420.6 200,417.3 220,413.8 240,410.2 260,406.4 280,402.7 300,398.9 320,395.3 340,391.9 360,388.7 380,385.8 400,383.2 420,381.0 440,379.3 460,378.0 480,377.2 500,376.9 520,377.1 540,377.8 560,379.0 580,380.7 600,382.8 620,385.3 640,388.1 660,391.3 680,394.7 700,398.3 720,402.0 740,405.7 760,409.5 780,413.1 800,416.7 820,420.0 840,423.0 860,425.7 880,428.1 900,430.0 920,431.5 940,432.5 960,433.0 980,433.0 1000,432.5 1020,431.5 1040,430.1 1060,428.2 1080,425.8 1100,423.1 1120,420.1 1140,416.8 1160,413.3 1180,409.6 1200,405.9 1220,402.1 1240,398.4 1260,394.8 1280,391.4 1300,388.3 1320,385.4 1340,382.9 1360,380.8 1380,379.1 1400,377.9 1420,377.1 1440,376.9 1460,377.2 1480,378.0 1500,379.2 1520,381.0 1540,383.1 1560,385.7 1580,388.6 1600,391.8" fill="none" stroke="#e88a4a" stroke-width="1.2" opacity="0.35"/>
<polyline points="0,411.7 20,411.2 40,413.1 60,417.2 80,423.3 100,431.0 120,439.8 140,449.2 160,458.7 180,467.6 200,475.5 220,481.9 240,486.3 260,488.6 280,488.6 300,486.2 320,481.7 340,475.2 360,467.3 380,458.3 400,448.8 420,439.4 440,430.6 460,423.0 480,417.0 500,413.0 520,411.2 540,411.8 560,414.6 580,419.6 600,426.4 620,434.6 640,443.7 660,453.2 680,462.6 700,471.1 720,478.4 740,484.0 760,487.6 780,488.9 800,487.8 820,484.5 840,479.1 860,472.0 880,463.5 900,454.3 920,444.7 940,435.5 960,427.2 980,420.2 1000,415.0 1020,412.0 1040,411.2 1060,412.7 1080,416.5 1100,422.2 1120,429.7 1140,438.4 1160,447.7 1180,457.3 1200,466.3 1220,474.4 1240,481.0 1260,485.8 1280,488.4 1300,488.7 1320,486.7 1340,482.5 1360,476.3 1380,468.5 1400,459.7 1420,450.2 1440,440.8 1460,431.9 1480,424.0 1500,417.8 1520,413.5 1540,411.3 1560,411.5 1580,414.0 1600,418.7" fill="none" stroke="#e88a4a" stroke-width="1.2" opacity="0.45"/>
<polyline points="0,459.5 20,452.4 40,448.1 60,447.0 80,449.2 100,454.4 120,462.4 140,472.6 160,484.3 180,496.7 200,509.0 220,520.4 240,530.1 260,537.3 280,541.8 300,543.0 320,541.0 340,535.9 360,528.1 380,518.0 400,506.3 420,493.9 440,481.6 460,470.1 480,460.4 500,453.0 520,448.4 540,447.0 560,448.8 580,453.7 600,461.5 620,471.5 640,483.0 660,495.4 680,507.8 700,519.3 720,529.2 740,536.7 760,541.4 780,543.0 800,541.4 820,536.6 840,529.0 860,519.1 880,507.6 900,495.2 920,482.8 940,471.2 960,461.3 980,453.6 1000,448.7 1020,447.0 1040,448.5 1060,453.1 1080,460.6 1100,470.4 1120,481.8 1140,494.2 1160,506.6 1180,518.2 1200,528.3 1220,536.1 1240,541.1 1260,543.0 1280,541.7 1300,537.2 1320,529.9 1340,520.2 1360,508.8 1380,496.5 1400,484.0 1420,472.4 1440,462.2 1460,454.3 1480,449.1 1500,447.0 1520,448.2 1540,452.5 1560,459.7 1580,469.3 1600,480.6" fill="none" stroke="#e88a4a" stroke-width="1.2" opacity="0.15"/>
<polyline points="0,497.0 20,490.7 40,485.4 60,481.4 80,478.7 100,477.3 120,477.3 140,478.8 160,481.5 180,485.6 200,490.9 220,497.3 240,504.6 260,512.7 280,521.4 300,530.5 320,539.9 340,549.2 360,558.4 380,567.1 400,575.2 420,582.6 440,589.0 460,594.3 480,598.4 500,601.2 520,602.6 540,602.7 560,601.4 580,598.7 600,594.7 620,589.5 640,583.2 660,575.9 680,567.8 700,559.1 720,550.0 740,540.7 760,531.4 780,522.2 800,513.4 820,505.3 840,497.9 860,491.4 880,486.0 900,481.8 920,479.0 940,477.4 960,477.3 980,478.5 1000,481.1 1020,485.0 1040,490.2 1060,496.4 1080,503.6 1100,511.6 1120,520.3 1140,529.4 1160,538.7 1180,548.1 1200,557.2 1220,566.0 1240,574.2 1260,581.7 1280,588.2 1300,593.7 1320,597.9 1340,600.9 1360,602.5 1380,602.8 1400,601.6 1420,599.1 1440,595.2 1460,590.2 1480,584.0 1500,576.8 1520,568.9 1540,560.3 1560,551.2 1580,541.9 1600,532.5" fill="none" stroke="#e88a4a" stroke-width="1.2" opacity="0.25"/>
<polyline points="0,524.2 20,528.3 40,535.0 60,544.1 80,555.0 100,567.4 120,580.5 140,593.9 160,606.8 180,618.8 200,629.1 220,637.5 240,643.4 260,646.6 280,646.9 300,644.4 320,639.1 340,631.4 360,621.5 380,609.9 400,597.1 420,583.8 440,570.5 460,558.0 480,546.6 500,537.1 520,529.7 540,524.9 560,522.9 580,523.8 600,527.5 620,533.9 640,542.6 660,553.3 680,565.5 700,578.5 720,591.9 740,604.9 760,617.1 780,627.7 800,636.4 820,642.6 840,646.3 860,647.0 880,645.0 900,640.1 920,632.7 940,623.1 960,611.7 980,599.1 1000,585.8 1020,572.5 1040,559.8 1060,548.2 1080,538.4 1100,530.7 1120,525.5 1140,523.1 1160,523.5 1180,526.8 1200,532.8 1220,541.2 1240,551.6 1260,563.6 1280,576.5 1300,589.9 1320,603.0 1340,615.3 1360,626.2 1380,635.2 1400,641.9 1420,645.9 1440,647.1 1460,645.4 1480,641.0 1500,633.9 1520,624.6 1540,613.5 1560,601.0 1580,587.8 1600,574.5" fill="none" stroke="#e88a4a" stroke-width="1.2" opacity="0.35"/>
<polyline points="0,598.7 20,604.9 40,611.5 60,618.3 80,625.4 100,632.6 120,639.7 140,646.6 160,653.3 180,659.6 200,665.4 220,670.6 240,675.2 260,679.0 280,682.1 300,684.2 320,685.5 340,685.9 360,685.4 380,683.9 400,681.6 420,678.4 440,674.5 460,669.8 480,664.4 500,658.5 520,652.2 540,645.4 560,638.5 580,631.3 600,624.2 620,617.1 640,610.3 660,603.8 680,597.7 700,592.1 720,587.2 740,583.0 760,579.5 780,576.8 800,575.1 820,574.2 840,574.2 860,575.2 880,577.0 900,579.7 920,583.3 940,587.6 960,592.6 980,598.2 1000,604.3 1020,610.8 1040,617.7 1060,624.8 1080,631.9 1100,639.0 1120,646.0 1140,652.7 1160,659.0 1180,664.9 1200,670.2 1220,674.8 1240,678.7 1260,681.8 1280,684.1 1300,685.4 1320,685.9 1340,685.5 1360,684.1 1380,681.9 1400,678.8 1420,674.9 1440,670.3 1460,665.0 1480,659.1 1500,652.8 1520,646.1 1540,639.1 1560,632.0 1580,624.9 1600,617.8" fill="none" stroke="#e88a4a" stroke-width="1.2" opacity="0.45"/><text x="800" y="872" fill="#6a6866" font-family="sans-serif" font-size="14" font-weight="600" letter-spacing="3" text-anchor="middle" opacity="0.6">DRIFT KOI</text>
</svg>
