<svg xmlns="http://www.w3.org/2000/svg" viewBox="0 0 900 1200" width="900" height="1200" preserveAspectRatio="xMidYMid slice">
<defs>
<linearGradient id="bg" x1="0" y1="0" x2="1" y2="1">
<stop offset="0" stop-color="#1c2030"/>
<stop offset="1" stop-color="#28303e"/>
</linearGradient>
<linearGradient id="glow" x1="0" y1="0" x2="0" y2="1">
<stop offset="0" stop-color="#ffffff" stop-opacity="0.08"/>
<stop offset="1" stop-color="#000000" stop-opacity="0.35"/>
</linearGradient>
</defs>
<rect width="900" height="1200" fill="url(#bg)"/>
<rect width="900" height="1200" fill="url(#glow)"/>
<ellipse cx="450.0" cy="600.0" rx="135.0" ry="54.6" fill="none" stroke="#7fb2d1" stroke-width="1.1" opacity="0.25" transform="rotate(-14.8 450.0 600.0)"/>
<ellipse cx="450.0" cy="600.0" rx="216.0" ry="146.0" fill="none" stroke="#7fb2d1" stroke-width="1.1" opacity="0.35" transform="rotate(-26.6 450.0 600.0)"/>
<ellipse cx="450.0" cy="600.0" rx="297.0" ry="167.2" fill="none" stroke="#7fb2d1" stroke-width="1.1" opacity="0.45" transform="rotate(15.3 450.0 600.0)"/>
<ellipse cx="450.0" cy="600.0" rx="378.0" ry="205.0" fill="none" stroke="#7fb2d1" stroke-width="1.1" opacity="0.55" transform="rotate(-22.1 450.0 600.0)"/>
<ellipse cx="450.0" cy="600.0" rx="459.0" ry="270.2" fill="none" stroke="#7fb2d1" stroke-width="1.1" opacity="0.65" transform="rotate(22.5 450.0 600.0)"/>
<circle cx="450.0" cy="600.0" r="36.0" fill="#7fb2d1" opacity="0.9"/>
<circle cx="450.0" cy="600.0" r="72.0" fill="none" stroke="#7fb2d1" stroke-width="1.4" opacity="0.7"/>
<circle cx="419.3" cy="749.6" r="6.8" fill="#7fb2d1" opacity="0.85"/>
<circle cx="281.5" cy="781.3" r="3.8" fill="#7fb2d1" opacity="0.85"/>
<circle cx="558.1" cy="406.1" r="6.3" fill="#7fb2d1" opacity="0.85"/>
<circle cx="187.7" cy="440.1" r="6.1" fill="#7fb2d1" opacity="0.85"/>
<circle cx="491.8" cy="784.0" r="3.3" fill="#7fb2d1" opacity="0.85"/>
<circle cx="185.5" cy="570.9" r="4.0" fill="#7fb2d1" opacity="0.85"/>
<circle cx="581.8" cy="747.7" r="6.4" fill="#7fb2d1" opacity="0.85"/><text x="450" y="1172" fill="#6a6866" font-family="sans-serif" font-size="14" font-weight="600" letter-spacing="3" text-anchor="middle" opacity="0.6">RECON DRONE</text>
</svg>
