<svg xmlns="http://www.w3.org/2000/svg" viewBox="0 0 1600 900" width="1600" height="900" preserveAspectRatio="xMidYMid slice">
<defs>
<linearGradient id="bg" x1="0" y1="0" x2="1" y2="1">
<stop offset="0" stop-color="#1e2030"/>
<stop offset="1" stop-color="#282a40"/>
</linearGradient>
<linearGradient id="glow" x1="0" y1="0" x2="0" y2="1">
<stop offset="0" stop-color="#ffffff" stop-opacity="0.08"/>
<stop offset="1" stop-color="#000000" stop-opacity="0.35"/>
</linearGradient>
</defs>
<rect width="1600" height="900" fill="url(#bg)"/>
<rect width="1600" height="900" fill="url(#glow)"/>
<path d="M 920.2 412.3 A 126.0 126.0 0 0 1 761.6 570.0" fill="none" stroke="#8fa6d1" stroke-width="1.4" opacity="0.25"/>
<path d="M 629.0 450.7 A 171.0 171.0 0 0 1 866.9 292.6" fill="none" stroke="#8fa6d1" stroke-width="1.4" opacity="0.40"/>
<path d="M 611.2 555.0 A 216.0 216.0 0 0 1 723.0 248.2" fill="none" stroke="#8fa6d1" stroke-width="1.4" opacity="0.55"/>
<path d="M 564.5 562.5 A 261.0 261.0 0 0 1 866.3 197.6" fill="none" stroke="#8fa6d1" stroke-width="1.4" opacity="0.25"/>
<path d="M 1060.3 610.9 A 306.0 306.0 0 0 1 517.2 566.9" fill="none" stroke="#8fa6d1" stroke-width="1.4" opacity="0.40"/>
<path d="M 491.7 282.3 A 351.0 351.0 0 0 1 1145.5 511.8" fill="none" stroke="#8fa6d1" stroke-width="1.4" opacity="0.55"/>
<circle cx="800.0" cy="450.0" r="54.0" fill="#8fa6d1" opacity="0.9"/><text x="800" y="872" fill="#6a6866" font-family="sans-serif" font-size="14" font-weight="600" letter-spacing="3" text-anchor="middle" opacity="0.6">FLUX CAPSULE</text>
</svg>
