<svg xmlns="http://www.w3.org/2000/svg" viewBox="0 0 1600 900" width="1600" height="900" preserveAspectRatio="xMidYMid slice">
<defs>
<linearGradient id="bg" x1="0" y1="0" x2="1" y2="1">
<stop offset="0" stop-color="#1a1a22"/>
<stop offset="1" stop-color="#262632"/>
</linearGradient>
<linearGradient id="glow" x1="0" y1="0" x2="0" y2="1">
<stop offset="0" stop-color="#ffffff" stop-opacity="0.08"/>
<stop offset="1" stop-color="#000000" stop-opacity="0.35"/>
</linearGradient>
</defs>
<rect width="1600" height="900" fill="url(#bg)"/>
<rect width="1600" height="900" fill="url(#glow)"/>
<polygon points="388.8,84.4 123.9,-65.6 91.3,20.5" fill="#b8a878" opacity="0.20"/>
<polygon points="1103.6,101.6 1327.3,-10.2 1326.4,48.3" fill="#b8a878" opacity="0.13"/>
<polygon points="10.3,175.8 -30.4,333.5 -7.4,179.4" fill="#b8a878" opacity="0.15"/>
<polygon points="1158.7,311.5 1245.5,235.6 1412.6,396.5" fill="#b8a878" opacity="0.14"/>
<polygon points="962.3,748.4 816.6,708.6 841.0,920.1" fill="#b8a878" opacity="0.18"/>
<polygon points="313.1,617.0 246.5,646.5 76.8,632.7" fill="#b8a878" opacity="0.13"/>
<polygon points="324.8,228.6 317.2,333.0 589.5,78.6" fill="#b8a878" opacity="0.10"/>
<polygon points="920.5,729.0 951.7,783.2 1227.2,776.2" fill="#b8a878" opacity="0.08"/>
<polygon points="1221.5,411.4 1389.9,384.7 943.3,497.7" fill="#b8a878" opacity="0.17"/>
<polygon points="419.4,576.1 564.4,658.7 597.9,482.6" fill="#b8a878" opacity="0.08"/>
<polygon points="219.8,223.1 -47.5,99.9 32.5,234.3" fill="#b8a878" opacity="0.09"/>
<polygon points="1246.5,880.9 1253.7,1032.4 1471.4,823.7" fill="#b8a878" opacity="0.13"/>
<polygon points="798.9,280.4 990.7,163.4 839.1,246.7" fill="#b8a878" opacity="0.15"/>
<polygon points="774.0,250.2 948.9,313.6 598.6,427.3" fill="#b8a878" opacity="0.17"/>
<polygon points="359.3,352.3 286.6,272.8 347.8,173.4" fill="#b8a878" opacity="0.07"/>
<polygon points="631.9,139.5 689.6,124.9 322.2,258.1" fill="#b8a878" opacity="0.18"/>
<polygon points="1485.9,496.4 1443.3,423.7 1225.8,321.8" fill="#b8a878" opacity="0.15"/>
<polygon points="1097.7,855.2 1181.1,731.3 1135.1,739.0" fill="#b8a878" opacity="0.15"/>
<polygon points="800.0,270.0 955.9,360.0 955.9,540.0 800.0,630.0 644.1,540.0 644.1,360.0" fill="none" stroke="#b8a878" stroke-width="1.6" opacity="0.85"/><text x="800" y="872" fill="#6a6866" font-family="sans-serif" font-size="14" font-weight="600" letter-spacing="3" text-anchor="middle" opacity="0.6">GLINT OWL</text>
</svg>
