<svg xmlns="http://www.w3.org/2000/svg" viewBox="0 0 1600 900" width="1600" height="900" preserveAspectRatio="xMidYMid slice">
<defs>
<linearGradient id="bg" x1="0" y1="0" x2="1" y2="1">
<stop offset="0" stop-color="#1a1a22"/>
<stop offset="1" stop-color="#262632"/>
</linearGradient>
<linearGradient id="glow" x1="0" y1="0" x2="0" y2="1">
<stop offset="0" stop-color="#ffffff" stop-opacity="0.08"/>
<stop offset="1" stop-color="#000000" stop-opacity="0.35"/>
</linearGradient>
</defs>
<rect width="1600" height="900" fill="url(#bg)"/>
<rect width="1600" height="900" fill="url(#glow)"/>
<line x1="800.0" y1="90.0" x2="800.0" y2="810.0" stroke="#b8a878" stroke-width="1.6" opacity="0.65"/>
<line x1="485.451282432137" y1="135.0" x2="1114.548717567863" y2="135.0" stroke="#b8a878" stroke-width="1" opacity="0.30"/>
<circle cx="800.0" cy="135.0" r="3" fill="#b8a878" opacity="0.85"/>
<line x1="480.297999798238" y1="198.0" x2="1119.702000201762" y2="198.0" stroke="#b8a878" stroke-width="1" opacity="0.42"/>
<circle cx="800.0" cy="198.0" r="3" fill="#b8a878" opacity="0.85"/>
<line x1="546.1315107888777" y1="261.0" x2="1053.8684892111223" y2="261.0" stroke="#b8a878" stroke-width="1" opacity="0.54"/>
<circle cx="800.0" cy="261.0" r="3" fill="#b8a878" opacity="0.85"/>
<line x1="305.0892978897373" y1="324.0" x2="1294.9107021102627" y2="324.0" stroke="#b8a878" stroke-width="1" opacity="0.30"/>
<circle cx="800.0" cy="324.0" r="3" fill="#b8a878" opacity="0.85"/>
<line x1="450.76824226197033" y1="387.0" x2="1149.2317577380297" y2="387.0" stroke="#b8a878" stroke-width="1" opacity="0.42"/>
<circle cx="800.0" cy="387.0" r="3" fill="#b8a878" opacity="0.85"/>
<line x1="426.183249352433" y1="450.0" x2="1173.816750647567" y2="450.0" stroke="#b8a878" stroke-width="1" opacity="0.54"/>
<circle cx="800.0" cy="450.0" r="3" fill="#b8a878" opacity="0.85"/>
<line x1="489.0335000516188" y1="513.0" x2="1110.9664999483812" y2="513.0" stroke="#b8a878" stroke-width="1" opacity="0.30"/>
<circle cx="800.0" cy="513.0" r="3" fill="#b8a878" opacity="0.85"/>
<line x1="240.56785324343252" y1="576.0" x2="1359.4321467565674" y2="576.0" stroke="#b8a878" stroke-width="1" opacity="0.42"/>
<circle cx="800.0" cy="576.0" r="3" fill="#b8a878" opacity="0.85"/>
<line x1="373.2174140620338" y1="639.0" x2="1226.7825859379661" y2="639.0" stroke="#b8a878" stroke-width="1" opacity="0.54"/>
<circle cx="800.0" cy="639.0" r="3" fill="#b8a878" opacity="0.85"/>
<line x1="423.8363465576466" y1="702.0" x2="1176.1636534423533" y2="702.0" stroke="#b8a878" stroke-width="1" opacity="0.30"/>
<circle cx="800.0" cy="702.0" r="3" fill="#b8a878" opacity="0.85"/><text x="800" y="872" fill="#6a6866" font-family="sans-serif" font-size="14" font-weight="600" letter-spacing="3" text-anchor="middle" opacity="0.6">GLINT OWL</text>
</svg>
