<svg xmlns="http://www.w3.org/2000/svg" viewBox="0 0 1600 900" width="1600" height="900" preserveAspectRatio="xMidYMid slice">
<defs>
<linearGradient id="bg" x1="0" y1="0" x2="1" y2="1">
<stop offset="0" stop-color="#1e2428"/>
<stop offset="1" stop-color="#2c3640"/>
</linearGradient>
<linearGradient id="glow" x1="0" y1="0" x2="0" y2="1">
<stop offset="0" stop-color="#ffffff" stop-opacity="0.08"/>
<stop offset="1" stop-color="#000000" stop-opacity="0.35"/>
</linearGradient>
</defs>
<rect width="1600" height="900" fill="url(#bg)"/>
<rect width="1600" height="900" fill="url(#glow)"/>
<line x1="800.0" y1="495.00000000000006" x2="1070.0" y2="500.1" stroke="#d8c79a" stroke-width="1.4" opacity="0.25"/>
<circle cx="1070.0" cy="500.1" r="4" fill="#d8c79a" opacity="0.8"/>
<line x1="800.0" y1="495.00000000000006" x2="998.9" y2="677.6" stroke="#d8c79a" stroke-width="1.4" opacity="0.40"/>
<circle cx="998.9" cy="677.6" r="4" fill="#d8c79a" opacity="0.8"/>
<line x1="800.0" y1="495.00000000000006" x2="790.1" y2="764.8" stroke="#d8c79a" stroke-width="1.4" opacity="0.55"/>
<circle cx="790.1" cy="764.8" r="4" fill="#d8c79a" opacity="0.8"/>
<line x1="800.0" y1="495.00000000000006" x2="600.2" y2="676.6" stroke="#d8c79a" stroke-width="1.4" opacity="0.25"/>
<circle cx="600.2" cy="676.6" r="4" fill="#d8c79a" opacity="0.8"/>
<line x1="800.0" y1="495.00000000000006" x2="530.0" y2="493.3" stroke="#d8c79a" stroke-width="1.4" opacity="0.40"/>
<circle cx="530.0" cy="493.3" r="4" fill="#d8c79a" opacity="0.8"/>
<line x1="800.0" y1="495.00000000000006" x2="605.4" y2="307.8" stroke="#d8c79a" stroke-width="1.4" opacity="0.55"/>
<circle cx="605.4" cy="307.8" r="4" fill="#d8c79a" opacity="0.8"/>
<line x1="800.0" y1="495.00000000000006" x2="797.4" y2="225.0" stroke="#d8c79a" stroke-width="1.4" opacity="0.25"/>
<circle cx="797.4" cy="225.0" r="4" fill="#d8c79a" opacity="0.8"/>
<line x1="800.0" y1="495.00000000000006" x2="992.9" y2="306.1" stroke="#d8c79a" stroke-width="1.4" opacity="0.40"/>
<circle cx="992.9" cy="306.1" r="4" fill="#d8c79a" opacity="0.8"/>
<circle cx="800.0" cy="495.00000000000006" r="45.0" fill="#d8c79a" opacity="0.95"/><text x="800" y="872" fill="#6a6866" font-family="sans-serif" font-size="14" font-weight="600" letter-spacing="3" text-anchor="middle" opacity="0.6">LUMEN ONE</text>
</svg>
