<svg xmlns="http://www.w3.org/2000/svg" viewBox="0 0 1600 900" width="1600" height="900" preserveAspectRatio="xMidYMid slice">
<defs>
<linearGradient id="bg" x1="0" y1="0" x2="1" y2="1">
<stop offset="0" stop-color="#1e2830"/>
<stop offset="1" stop-color="#28363e"/>
</linearGradient>
<linearGradient id="glow" x1="0" y1="0" x2="0" y2="1">
<stop offset="0" stop-color="#ffffff" stop-opacity="0.08"/>
<stop offset="1" stop-color="#000000" stop-opacity="0.35"/>
</linearGradient>
</defs>
<rect width="1600" height="900" fill="url(#bg)"/>
<rect width="1600" height="900" fill="url(#glow)"/>
<line x1="800.0" y1="90.0" x2="800.0" y2="810.0" stroke="#8cb3c2" stroke-width="1.6" opacity="0.65"/>
<line x1="385.3190569431223" y1="135.0" x2="1214.6809430568778" y2="135.0" stroke="#8cb3c2" stroke-width="1" opacity="0.30"/>
<circle cx="800.0" cy="135.0" r="3" fill="#8cb3c2" opacity="0.85"/>
<line x1="414.3279844862723" y1="225.0" x2="1185.6720155137277" y2="225.0" stroke="#8cb3c2" stroke-width="1" opacity="0.42"/>
<circle cx="800.0" cy="225.0" r="3" fill="#8cb3c2" opacity="0.85"/>
<line x1="453.00669170040624" y1="315.0" x2="1146.9933082995938" y2="315.0" stroke="#8cb3c2" stroke-width="1" opacity="0.54"/>
<circle cx="800.0" cy="315.0" r="3" fill="#8cb3c2" opacity="0.85"/>
<line x1="492.6882726545623" y1="405.0" x2="1107.3117273454377" y2="405.0" stroke="#8cb3c2" stroke-width="1" opacity="0.30"/>
<circle cx="800.0" cy="405.0" r="3" fill="#8cb3c2" opacity="0.85"/>
<line x1="424.1176796920235" y1="495.0" x2="1175.8823203079764" y2="495.0" stroke="#8cb3c2" stroke-width="1" opacity="0.42"/>
<circle cx="800.0" cy="495.0" r="3" fill="#8cb3c2" opacity="0.85"/>
<line x1="550.603264943209" y1="585.0" x2="1049.3967350567912" y2="585.0" stroke="#8cb3c2" stroke-width="1" opacity="0.54"/>
<circle cx="800.0" cy="585.0" r="3" fill="#8cb3c2" opacity="0.85"/>
<line x1="461.12298673877825" y1="675.0" x2="1138.8770132612217" y2="675.0" stroke="#8cb3c2" stroke-width="1" opacity="0.30"/>
<circle cx="800.0" cy="675.0" r="3" fill="#8cb3c2" opacity="0.85"/><text x="800" y="872" fill="#6a6866" font-family="sans-serif" font-size="14" font-weight="600" letter-spacing="3" text-anchor="middle" opacity="0.6">CORE RIG</text>
</svg>
