<svg xmlns="http://www.w3.org/2000/svg" viewBox="0 0 900 1200" width="900" height="1200" preserveAspectRatio="xMidYMid slice">
<defs>
<linearGradient id="bg" x1="0" y1="0" x2="1" y2="1">
<stop offset="0" stop-color="#1e2830"/>
<stop offset="1" stop-color="#28363e"/>
</linearGradient>
<linearGradient id="glow" x1="0" y1="0" x2="0" y2="1">
<stop offset="0" stop-color="#ffffff" stop-opacity="0.08"/>
<stop offset="1" stop-color="#000000" stop-opacity="0.35"/>
</linearGradient>
</defs>
<rect width="900" height="1200" fill="url(#bg)"/>
<rect width="900" height="1200" fill="url(#glow)"/>
<polygon points="228.9,415.5 557.2,332.7 737.4,619.3 520.4,879.3 206.2,753.3" fill="none" stroke="#8cb3c2" stroke-width="1.4" opacity="0.85"/>
<line x1="450.0" y1="600.0" x2="228.9" y2="415.5" stroke="#8cb3c2" stroke-width="0.8" opacity="0.35"/>
<line x1="450.0" y1="600.0" x2="557.2" y2="332.7" stroke="#8cb3c2" stroke-width="0.8" opacity="0.35"/>
<line x1="450.0" y1="600.0" x2="737.4" y2="619.3" stroke="#8cb3c2" stroke-width="0.8" opacity="0.35"/>
<line x1="450.0" y1="600.0" x2="520.4" y2="879.3" stroke="#8cb3c2" stroke-width="0.8" opacity="0.35"/>
<line x1="450.0" y1="600.0" x2="206.2" y2="753.3" stroke="#8cb3c2" stroke-width="0.8" opacity="0.35"/>
<circle cx="365.9" cy="266.5" r="3" fill="#8cb3c2" opacity="0.8"/>
<circle cx="744.7" cy="414.8" r="3" fill="#8cb3c2" opacity="0.8"/>
<circle cx="699.1" cy="807.9" r="3" fill="#8cb3c2" opacity="0.8"/>
<circle cx="314.4" cy="938.3" r="3" fill="#8cb3c2" opacity="0.8"/>
<circle cx="90.2" cy="575.8" r="3" fill="#8cb3c2" opacity="0.8"/><text x="450" y="1172" fill="#6a6866" font-family="sans-serif" font-size="14" font-weight="600" letter-spacing="3" text-anchor="middle" opacity="0.6">CORE RIG</text>
</svg>
