<svg xmlns="http://www.w3.org/2000/svg" viewBox="0 0 800 600" width="800" height="600" preserveAspectRatio="xMidYMid slice"><defs><linearGradient id="bg" x1="0" y1="0" x2="1" y2="1"><stop offset="0" stop-color="#21272d"/><stop offset="1" stop-color="#2e353c"/></linearGradient><linearGradient id="glow" x1="0" y1="0" x2="0" y2="1"><stop offset="0" stop-color="#ffffff" stop-opacity="0.06"/><stop offset="1" stop-color="#000000" stop-opacity="0.35"/></linearGradient></defs><rect width="800" height="600" fill="url(#bg)"/><rect width="800" height="600" fill="url(#glow)"/><line x1="0" y1="0" x2="0" y2="600" stroke="#8f9eab" stroke-width="0.6" opacity="0.08"/><line x1="50" y1="0" x2="50" y2="600" stroke="#8f9eab" stroke-width="0.6" opacity="0.08"/><line x1="100" y1="0" x2="100" y2="600" stroke="#8f9eab" stroke-width="0.6" opacity="0.08"/><line x1="150" y1="0" x2="150" y2="600" stroke="#8f9eab" stroke-width="0.6" opacity="0.08"/><line x1="200" y1="0" x2="200" y2="600" stroke="#8f9eab" stroke-width="0.6" opacity="0.08"/><line x1="250" y1="0" x2="250" y2="600" stroke="#8f9eab" stroke-width="0.6" opacity="0.08"/><line x1="300" y1="0" x2="300" y2="600" stroke="#8f9eab" stroke-width="0.6" opacity="0.08"/><line x1="350" y1="0" x2="350" y2="600" stroke="#8f9eab" stroke-width="0.6" opacity="0.08"/><line x1="400" y1="0" x2="400" y2="600" stroke="#8f9eab" stroke-width="0.6" opacity="0.08"/><line x1="450" y1="0" x2="450" y2="600" stroke="#8f9eab" stroke-width="0.6" opacity="0.08"/><line x1="500" y1="0" x2="500" y2="600" stroke="#8f9eab" stroke-width="0.6" opacity="0.08"/><line x1="550" y1="0" x2="550" y2="600" stroke="#8f9eab" stroke-width="0.6" opacity="0.08"/><line x1="600" y1="0" x2="600" y2="600" stroke="#8f9eab" stroke-width="0.6" opacity="0.08"/><line x1="650" y1="0" x2="650" y2="600" stroke="#8f9eab" stroke-width="0.6" opacity="0.08"/><line x1="700" y1="0" x2="700" y2="600" stroke="#8f9eab" stroke-width="0.6" opacity="0.08"/><line x1="750" y1="0" x2="750" y2="600" stroke="#8f9eab" stroke-width="0.6" opacity="0.08"/><line x1="800" y1="0" x2="800" y2="600" stroke="#8f9eab" stroke-width="0.6" opacity="0.08"/><line x1="0" y1="0" x2="800" y2="0" stroke="#8f9eab" stroke-width="0.6" opacity="0.08"/><line x1="0" y1="50" x2="800" y2="50" stroke="#8f9eab" stroke-width="0.6" opacity="0.08"/><line x1="0" y1="100" x2="800" y2="100" stroke="#8f9eab" stroke-width="0.6" opacity="0.08"/><line x1="0" y1="150" x2="800" y2="150" stroke="#8f9eab" stroke-width="0.6" opacity="0.08"/><line x1="0" y1="200" x2="800" y2="200" stroke="#8f9eab" stroke-width="0.6" opacity="0.08"/><line x1="0" y1="250" x2="800" y2="250" stroke="#8f9eab" stroke-width="0.6" opacity="0.08"/><line x1="0" y1="300" x2="800" y2="300" stroke="#8f9eab" stroke-width="0.6" opacity="0.08"/><line x1="0" y1="350" x2="800" y2="350" stroke="#8f9eab" stroke-width="0.6" opacity="0.08"/><line x1="0" y1="400" x2="800" y2="400" stroke="#8f9eab" stroke-width="0.6" opacity="0.08"/><line x1="0" y1="450" x2="800" y2="450" stroke="#8f9eab" stroke-width="0.6" opacity="0.08"/><line x1="0" y1="500" x2="800" y2="500" stroke="#8f9eab" stroke-width="0.6" opacity="0.08"/><line x1="0" y1="550" x2="800" y2="550" stroke="#8f9eab" stroke-width="0.6" opacity="0.08"/><line x1="0" y1="600" x2="800" y2="600" stroke="#8f9eab" stroke-width="0.6" opacity="0.08"/><circle cx="400" cy="290" r="140" fill="none" stroke="#8f9eab" stroke-width="1.2" opacity="0.5"/><circle cx="400" cy="290" r="110" fill="none" stroke="#8f9eab" stroke-width="1.0" opacity="0.35"/><circle cx="400" cy="290" r="80"  fill="none" stroke="#8f9eab" stroke-width="1.0" opacity="0.4"/><circle cx="400" cy="290" r="24"  fill="#c0cbd4" opacity="0.9"/><line x1="400" y1="290" x2="596.0" y2="329.7" stroke="#8f9eab" stroke-width="0.8" opacity="0.25"/><line x1="400" y1="290" x2="510.5" y2="456.7" stroke="#8f9eab" stroke-width="0.8" opacity="0.25"/><line x1="400" y1="290" x2="360.3" y2="486.0" stroke="#8f9eab" stroke-width="0.8" opacity="0.25"/><line x1="400" y1="290" x2="233.3" y2="400.5" stroke="#8f9eab" stroke-width="0.8" opacity="0.25"/><line x1="400" y1="290" x2="204.0" y2="250.3" stroke="#8f9eab" stroke-width="0.8" opacity="0.25"/><line x1="400" y1="290" x2="289.5" y2="123.3" stroke="#8f9eab" stroke-width="0.8" opacity="0.25"/><line x1="400" y1="290" x2="439.7" y2="94.0" stroke="#8f9eab" stroke-width="0.8" opacity="0.25"/><line x1="400" y1="290" x2="566.7" y2="179.5" stroke="#8f9eab" stroke-width="0.8" opacity="0.25"/><circle cx="423.5" cy="349.8" r="3.2" fill="#c0cbd4" opacity="0.75"/><circle cx="423.5" cy="349.8" r="8" fill="none" stroke="#8f9eab" stroke-width="0.8" opacity="0.35"/><circle cx="238.2" cy="371.7" r="3.2" fill="#c0cbd4" opacity="0.75"/><circle cx="238.2" cy="371.7" r="8" fill="none" stroke="#8f9eab" stroke-width="0.8" opacity="0.35"/><circle cx="577.9" cy="355.9" r="3.2" fill="#c0cbd4" opacity="0.75"/><circle cx="577.9" cy="355.9" r="8" fill="none" stroke="#8f9eab" stroke-width="0.8" opacity="0.35"/><circle cx="475.8" cy="310.9" r="3.2" fill="#c0cbd4" opacity="0.75"/><circle cx="475.8" cy="310.9" r="8" fill="none" stroke="#8f9eab" stroke-width="0.8" opacity="0.35"/><circle cx="171.6" cy="189.6" r="3.2" fill="#c0cbd4" opacity="0.75"/><circle cx="171.6" cy="189.6" r="8" fill="none" stroke="#8f9eab" stroke-width="0.8" opacity="0.35"/><circle cx="102.3" cy="129.7" r="3.2" fill="#c0cbd4" opacity="0.75"/><circle cx="102.3" cy="129.7" r="8" fill="none" stroke="#8f9eab" stroke-width="0.8" opacity="0.35"/><line x1="80" y1="540" x2="720" y2="540" stroke="#8f9eab" stroke-width="0.8" opacity="0.5"/><line x1="80" y1="530" x2="80" y2="550" stroke="#8f9eab" stroke-width="0.8" opacity="0.5"/><line x1="720" y1="530" x2="720" y2="550" stroke="#8f9eab" stroke-width="0.8" opacity="0.5"/><text x="400" y="534" fill="#8f9eab" font-family="sans-serif" font-size="10" letter-spacing="2" text-anchor="middle" opacity="0.55">640.0 MM</text><text x="400" y="572" fill="#6a6866" font-family="sans-serif" font-size="14" font-weight="600" letter-spacing="3" text-anchor="middle" opacity="0.6">FLEX SPINE</text></svg>