<svg xmlns="http://www.w3.org/2000/svg" viewBox="0 0 800 600" width="800" height="600" preserveAspectRatio="xMidYMid slice">
<defs>
<linearGradient id="bg" x1="0" y1="0" x2="1" y2="1">
<stop offset="0" stop-color="#1e2428"/>
<stop offset="1" stop-color="#2c3640"/>
</linearGradient>
<linearGradient id="glow" x1="0" y1="0" x2="0" y2="1">
<stop offset="0" stop-color="#ffffff" stop-opacity="0.08"/>
<stop offset="1" stop-color="#000000" stop-opacity="0.35"/>
</linearGradient>
</defs>
<rect width="800" height="600" fill="url(#bg)"/>
<rect width="800" height="600" fill="url(#glow)"/>
<line x1="400.0" y1="330.0" x2="580.0" y2="327.4" stroke="#d8c79a" stroke-width="1.4" opacity="0.25"/>
<circle cx="580.0" cy="327.4" r="4" fill="#d8c79a" opacity="0.8"/>
<line x1="400.0" y1="330.0" x2="558.4" y2="415.4" stroke="#d8c79a" stroke-width="1.4" opacity="0.40"/>
<circle cx="558.4" cy="415.4" r="4" fill="#d8c79a" opacity="0.8"/>
<line x1="400.0" y1="330.0" x2="518.0" y2="466.0" stroke="#d8c79a" stroke-width="1.4" opacity="0.55"/>
<circle cx="518.0" cy="466.0" r="4" fill="#d8c79a" opacity="0.8"/>
<line x1="400.0" y1="330.0" x2="444.3" y2="504.5" stroke="#d8c79a" stroke-width="1.4" opacity="0.25"/>
<circle cx="444.3" cy="504.5" r="4" fill="#d8c79a" opacity="0.8"/>
<line x1="400.0" y1="330.0" x2="368.4" y2="507.2" stroke="#d8c79a" stroke-width="1.4" opacity="0.40"/>
<circle cx="368.4" cy="507.2" r="4" fill="#d8c79a" opacity="0.8"/>
<line x1="400.0" y1="330.0" x2="284.3" y2="467.9" stroke="#d8c79a" stroke-width="1.4" opacity="0.55"/>
<circle cx="284.3" cy="467.9" r="4" fill="#d8c79a" opacity="0.8"/>
<line x1="400.0" y1="330.0" x2="239.3" y2="411.1" stroke="#d8c79a" stroke-width="1.4" opacity="0.25"/>
<circle cx="239.3" cy="411.1" r="4" fill="#d8c79a" opacity="0.8"/>
<line x1="400.0" y1="330.0" x2="220.1" y2="336.5" stroke="#d8c79a" stroke-width="1.4" opacity="0.40"/>
<circle cx="220.1" cy="336.5" r="4" fill="#d8c79a" opacity="0.8"/>
<line x1="400.0" y1="330.0" x2="239.6" y2="248.2" stroke="#d8c79a" stroke-width="1.4" opacity="0.55"/>
<circle cx="239.6" cy="248.2" r="4" fill="#d8c79a" opacity="0.8"/>
<line x1="400.0" y1="330.0" x2="283.8" y2="192.5" stroke="#d8c79a" stroke-width="1.4" opacity="0.25"/>
<circle cx="283.8" cy="192.5" r="4" fill="#d8c79a" opacity="0.8"/>
<line x1="400.0" y1="330.0" x2="354.6" y2="155.8" stroke="#d8c79a" stroke-width="1.4" opacity="0.40"/>
<circle cx="354.6" cy="155.8" r="4" fill="#d8c79a" opacity="0.8"/>
<line x1="400.0" y1="330.0" x2="441.3" y2="154.8" stroke="#d8c79a" stroke-width="1.4" opacity="0.55"/>
<circle cx="441.3" cy="154.8" r="4" fill="#d8c79a" opacity="0.8"/>
<line x1="400.0" y1="330.0" x2="514.6" y2="191.2" stroke="#d8c79a" stroke-width="1.4" opacity="0.25"/>
<circle cx="514.6" cy="191.2" r="4" fill="#d8c79a" opacity="0.8"/>
<line x1="400.0" y1="330.0" x2="562.7" y2="252.9" stroke="#d8c79a" stroke-width="1.4" opacity="0.40"/>
<circle cx="562.7" cy="252.9" r="4" fill="#d8c79a" opacity="0.8"/>
<circle cx="400.0" cy="330.0" r="30.0" fill="#d8c79a" opacity="0.95"/><text x="400" y="572" fill="#6a6866" font-family="sans-serif" font-size="14" font-weight="600" letter-spacing="3" text-anchor="middle" opacity="0.6">LUMEN ONE</text>
</svg>
