<svg xmlns="http://www.w3.org/2000/svg" viewBox="0 0 800 600" width="800" height="600" preserveAspectRatio="xMidYMid slice">
<defs>
<linearGradient id="bg" x1="0" y1="0" x2="1" y2="1">
<stop offset="0" stop-color="#1a2030"/>
<stop offset="1" stop-color="#252e40"/>
</linearGradient>
<linearGradient id="glow" x1="0" y1="0" x2="0" y2="1">
<stop offset="0" stop-color="#ffffff" stop-opacity="0.08"/>
<stop offset="1" stop-color="#000000" stop-opacity="0.35"/>
</linearGradient>
</defs>
<rect width="800" height="600" fill="url(#bg)"/>
<rect width="800" height="600" fill="url(#glow)"/>
<line x1="-600" y1="0" x2="0" y2="600" stroke="#7aa3c8" stroke-width="0.6" opacity="0.14"/>
<line x1="-540" y1="0" x2="60" y2="600" stroke="#7aa3c8" stroke-width="0.6" opacity="0.14"/>
<line x1="-480" y1="0" x2="120" y2="600" stroke="#7aa3c8" stroke-width="0.6" opacity="0.14"/>
<line x1="-420" y1="0" x2="180" y2="600" stroke="#7aa3c8" stroke-width="0.6" opacity="0.14"/>
<line x1="-360" y1="0" x2="240" y2="600" stroke="#7aa3c8" stroke-width="0.6" opacity="0.14"/>
<line x1="-300" y1="0" x2="300" y2="600" stroke="#7aa3c8" stroke-width="0.6" opacity="0.14"/>
<line x1="-240" y1="0" x2="360" y2="600" stroke="#7aa3c8" stroke-width="0.6" opacity="0.14"/>
<line x1="-180" y1="0" x2="420" y2="600" stroke="#7aa3c8" stroke-width="0.6" opacity="0.14"/>
<line x1="-120" y1="0" x2="480" y2="600" stroke="#7aa3c8" stroke-width="0.6" opacity="0.14"/>
<line x1="-60" y1="0" x2="540" y2="600" stroke="#7aa3c8" stroke-width="0.6" opacity="0.14"/>
<line x1="0" y1="0" x2="600" y2="600" stroke="#7aa3c8" stroke-width="0.6" opacity="0.14"/>
<line x1="60" y1="0" x2="660" y2="600" stroke="#7aa3c8" stroke-width="0.6" opacity="0.14"/>
<line x1="120" y1="0" x2="720" y2="600" stroke="#7aa3c8" stroke-width="0.6" opacity="0.14"/>
<line x1="180" y1="0" x2="780" y2="600" stroke="#7aa3c8" stroke-width="0.6" opacity="0.14"/>
<line x1="240" y1="0" x2="840" y2="600" stroke="#7aa3c8" stroke-width="0.6" opacity="0.14"/>
<line x1="300" y1="0" x2="900" y2="600" stroke="#7aa3c8" stroke-width="0.6" opacity="0.14"/>
<line x1="360" y1="0" x2="960" y2="600" stroke="#7aa3c8" stroke-width="0.6" opacity="0.14"/>
<line x1="420" y1="0" x2="1020" y2="600" stroke="#7aa3c8" stroke-width="0.6" opacity="0.14"/>
<line x1="480" y1="0" x2="1080" y2="600" stroke="#7aa3c8" stroke-width="0.6" opacity="0.14"/>
<line x1="540" y1="0" x2="1140" y2="600" stroke="#7aa3c8" stroke-width="0.6" opacity="0.14"/>
<line x1="600" y1="0" x2="1200" y2="600" stroke="#7aa3c8" stroke-width="0.6" opacity="0.14"/>
<line x1="660" y1="0" x2="1260" y2="600" stroke="#7aa3c8" stroke-width="0.6" opacity="0.14"/>
<line x1="720" y1="0" x2="1320" y2="600" stroke="#7aa3c8" stroke-width="0.6" opacity="0.14"/>
<line x1="780" y1="0" x2="1380" y2="600" stroke="#7aa3c8" stroke-width="0.6" opacity="0.14"/>
<line x1="840" y1="0" x2="1440" y2="600" stroke="#7aa3c8" stroke-width="0.6" opacity="0.14"/>
<line x1="900" y1="0" x2="1500" y2="600" stroke="#7aa3c8" stroke-width="0.6" opacity="0.14"/>
<line x1="960" y1="0" x2="1560" y2="600" stroke="#7aa3c8" stroke-width="0.6" opacity="0.14"/>
<line x1="1020" y1="0" x2="1620" y2="600" stroke="#7aa3c8" stroke-width="0.6" opacity="0.14"/>
<line x1="1080" y1="0" x2="1680" y2="600" stroke="#7aa3c8" stroke-width="0.6" opacity="0.14"/>
<line x1="1140" y1="0" x2="1740" y2="600" stroke="#7aa3c8" stroke-width="0.6" opacity="0.14"/>
<line x1="1200" y1="0" x2="1800" y2="600" stroke="#7aa3c8" stroke-width="0.6" opacity="0.14"/>
<line x1="1260" y1="0" x2="1860" y2="600" stroke="#7aa3c8" stroke-width="0.6" opacity="0.14"/>
<line x1="1320" y1="0" x2="1920" y2="600" stroke="#7aa3c8" stroke-width="0.6" opacity="0.14"/>
<line x1="1380" y1="0" x2="1980" y2="600" stroke="#7aa3c8" stroke-width="0.6" opacity="0.14"/>
<line x1="-600" y1="600" x2="0" y2="0" stroke="#7aa3c8" stroke-width="0.6" opacity="0.14"/>
<line x1="-540" y1="600" x2="60" y2="0" stroke="#7aa3c8" stroke-width="0.6" opacity="0.14"/>
<line x1="-480" y1="600" x2="120" y2="0" stroke="#7aa3c8" stroke-width="0.6" opacity="0.14"/>
<line x1="-420" y1="600" x2="180" y2="0" stroke="#7aa3c8" stroke-width="0.6" opacity="0.14"/>
<line x1="-360" y1="600" x2="240" y2="0" stroke="#7aa3c8" stroke-width="0.6" opacity="0.14"/>
<line x1="-300" y1="600" x2="300" y2="0" stroke="#7aa3c8" stroke-width="0.6" opacity="0.14"/>
<line x1="-240" y1="600" x2="360" y2="0" stroke="#7aa3c8" stroke-width="0.6" opacity="0.14"/>
<line x1="-180" y1="600" x2="420" y2="0" stroke="#7aa3c8" stroke-width="0.6" opacity="0.14"/>
<line x1="-120" y1="600" x2="480" y2="0" stroke="#7aa3c8" stroke-width="0.6" opacity="0.14"/>
<line x1="-60" y1="600" x2="540" y2="0" stroke="#7aa3c8" stroke-width="0.6" opacity="0.14"/>
<line x1="0" y1="600" x2="600" y2="0" stroke="#7aa3c8" stroke-width="0.6" opacity="0.14"/>
<line x1="60" y1="600" x2="660" y2="0" stroke="#7aa3c8" stroke-width="0.6" opacity="0.14"/>
<line x1="120" y1="600" x2="720" y2="0" stroke="#7aa3c8" stroke-width="0.6" opacity="0.14"/>
<line x1="180" y1="600" x2="780" y2="0" stroke="#7aa3c8" stroke-width="0.6" opacity="0.14"/>
<line x1="240" y1="600" x2="840" y2="0" stroke="#7aa3c8" stroke-width="0.6" opacity="0.14"/>
<line x1="300" y1="600" x2="900" y2="0" stroke="#7aa3c8" stroke-width="0.6" opacity="0.14"/>
<line x1="360" y1="600" x2="960" y2="0" stroke="#7aa3c8" stroke-width="0.6" opacity="0.14"/>
<line x1="420" y1="600" x2="1020" y2="0" stroke="#7aa3c8" stroke-width="0.6" opacity="0.14"/>
<line x1="480" y1="600" x2="1080" y2="0" stroke="#7aa3c8" stroke-width="0.6" opacity="0.14"/>
<line x1="540" y1="600" x2="1140" y2="0" stroke="#7aa3c8" stroke-width="0.6" opacity="0.14"/>
<line x1="600" y1="600" x2="1200" y2="0" stroke="#7aa3c8" stroke-width="0.6" opacity="0.14"/>
<line x1="660" y1="600" x2="1260" y2="0" stroke="#7aa3c8" stroke-width="0.6" opacity="0.14"/>
<line x1="720" y1="600" x2="1320" y2="0" stroke="#7aa3c8" stroke-width="0.6" opacity="0.14"/>
<line x1="780" y1="600" x2="1380" y2="0" stroke="#7aa3c8" stroke-width="0.6" opacity="0.14"/>
<line x1="840" y1="600" x2="1440" y2="0" stroke="#7aa3c8" stroke-width="0.6" opacity="0.14"/>
<line x1="900" y1="600" x2="1500" y2="0" stroke="#7aa3c8" stroke-width="0.6" opacity="0.14"/>
<line x1="960" y1="600" x2="1560" y2="0" stroke="#7aa3c8" stroke-width="0.6" opacity="0.14"/>
<line x1="1020" y1="600" x2="1620" y2="0" stroke="#7aa3c8" stroke-width="0.6" opacity="0.14"/>
<line x1="1080" y1="600" x2="1680" y2="0" stroke="#7aa3c8" stroke-width="0.6" opacity="0.14"/>
<line x1="1140" y1="600" x2="1740" y2="0" stroke="#7aa3c8" stroke-width="0.6" opacity="0.14"/>
<line x1="1200" y1="600" x2="1800" y2="0" stroke="#7aa3c8" stroke-width="0.6" opacity="0.14"/>
<line x1="1260" y1="600" x2="1860" y2="0" stroke="#7aa3c8" stroke-width="0.6" opacity="0.14"/>
<line x1="1320" y1="600" x2="1920" y2="0" stroke="#7aa3c8" stroke-width="0.6" opacity="0.14"/>
<line x1="1380" y1="600" x2="1980" y2="0" stroke="#7aa3c8" stroke-width="0.6" opacity="0.14"/>
<circle cx="409.9" cy="421.0" r="5.5" fill="#7aa3c8" opacity="0.5"/>
<circle cx="332.9" cy="189.3" r="6.8" fill="#7aa3c8" opacity="0.5"/>
<circle cx="119.3" cy="369.3" r="6.9" fill="#7aa3c8" opacity="0.5"/>
<circle cx="138.7" cy="343.2" r="6.5" fill="#7aa3c8" opacity="0.5"/>
<circle cx="325.8" cy="487.0" r="4.8" fill="#7aa3c8" opacity="0.5"/>
<circle cx="192.3" cy="376.0" r="5.9" fill="#7aa3c8" opacity="0.5"/>
<circle cx="590.9" cy="442.0" r="6.5" fill="#7aa3c8" opacity="0.5"/>
<circle cx="514.0" cy="264.3" r="5.3" fill="#7aa3c8" opacity="0.5"/>
<circle cx="503.5" cy="338.7" r="4.2" fill="#7aa3c8" opacity="0.5"/>
<circle cx="511.8" cy="173.2" r="6.2" fill="#7aa3c8" opacity="0.5"/>
<circle cx="616.7" cy="130.8" r="5.6" fill="#7aa3c8" opacity="0.5"/>
<circle cx="147.5" cy="492.7" r="5.6" fill="#7aa3c8" opacity="0.5"/>
<circle cx="315.2" cy="432.9" r="7.6" fill="#7aa3c8" opacity="0.5"/>
<circle cx="94.2" cy="396.5" r="5.7" fill="#7aa3c8" opacity="0.5"/>
<circle cx="586.7" cy="244.1" r="5.9" fill="#7aa3c8" opacity="0.5"/>
<circle cx="199.5" cy="457.5" r="7.9" fill="#7aa3c8" opacity="0.5"/><text x="400" y="572" fill="#6a6866" font-family="sans-serif" font-size="14" font-weight="600" letter-spacing="3" text-anchor="middle" opacity="0.6">VEGA SHELL</text>
</svg>
